<svg width="103" height="37" viewBox="0 0 103 37" fill="none" xmlns="http://www.w3.org/2000/svg">
<path d="M2.34375 8.86719H7.19531C9.33594 8.86719 10.9453 9.1875 12.0234 9.82812C13.1016 10.4688 13.6406 11.5586 13.6406 13.0977C13.6406 13.7617 13.5117 14.3594 13.2539 14.8906C13.0039 15.4141 12.6367 15.8477 12.1523 16.1914C11.668 16.5352 11.0703 16.7734 10.3594 16.9062V17.0234C11.1094 17.1406 11.7734 17.3555 12.3516 17.668C12.9297 17.9805 13.3828 18.418 13.7109 18.9805C14.0391 19.543 14.2031 20.2578 14.2031 21.125C14.2031 22.1797 13.957 23.0703 13.4648 23.7969C12.9805 24.5234 12.293 25.0742 11.4023 25.4492C10.5117 25.8164 9.45703 26 8.23828 26H2.34375V8.86719ZM4.33594 16.2148H7.61719C9.10938 16.2148 10.1406 15.9688 10.7109 15.4766C11.2891 14.9844 11.5781 14.2656 11.5781 13.3203C11.5781 12.3438 11.2344 11.6406 10.5469 11.2109C9.86719 10.7812 8.78125 10.5664 7.28906 10.5664H4.33594V16.2148ZM4.33594 17.8906V24.3008H7.89844C9.42188 24.3008 10.5 24.0039 11.1328 23.4102C11.7656 22.8086 12.082 22 12.082 20.9844C12.082 20.3359 11.9375 19.7812 11.6484 19.3203C11.3672 18.8594 10.9062 18.5078 10.2656 18.2656C9.63281 18.0156 8.78516 17.8906 7.72266 17.8906H4.33594ZM17.5664 26V13.1562H19.5234V18.4531H23.0391C24.1328 18.4531 25.0312 18.5898 25.7344 18.8633C26.4453 19.1367 26.9727 19.543 27.3164 20.082C27.6602 20.6211 27.832 21.2891 27.832 22.0859C27.832 22.8828 27.6602 23.5742 27.3164 24.1602C26.9805 24.7461 26.4492 25.1992 25.7227 25.5195C25.0039 25.8398 24.0664 26 22.9102 26H17.5664ZM19.5234 24.418H22.7227C23.6914 24.418 24.4648 24.2461 25.043 23.9023C25.6211 23.5586 25.9102 22.9844 25.9102 22.1797C25.9102 21.3906 25.6406 20.8438 25.1016 20.5391C24.5625 20.2266 23.7891 20.0703 22.7812 20.0703H19.5234V24.418ZM29.9531 26V13.1562H31.8984V26H29.9531ZM37.8633 13.1562V21.2305C37.8633 21.3867 37.8594 21.5898 37.8516 21.8398C37.8438 22.082 37.832 22.3438 37.8164 22.625C37.8008 22.8984 37.7852 23.1641 37.7695 23.4219C37.7617 23.6719 37.75 23.8789 37.7344 24.043L44.7422 13.1562H47.1328V26H45.3164V18.125C45.3164 17.875 45.3203 17.5547 45.3281 17.1641C45.3359 16.7734 45.3477 16.3906 45.3633 16.0156C45.3789 15.6328 45.3906 15.3359 45.3984 15.125L38.4141 26H36.0117V13.1562H37.8633ZM46.1719 7.87109C46.1016 8.66016 45.9023 9.32031 45.5742 9.85156C45.2539 10.3828 44.7812 10.7852 44.1562 11.0586C43.5312 11.3242 42.7305 11.457 41.7539 11.457C40.7461 11.457 39.9336 11.3281 39.3164 11.0703C38.707 10.8047 38.2539 10.4062 37.957 9.875C37.668 9.34375 37.4961 8.67578 37.4414 7.87109H39.2695C39.3555 8.73047 39.5859 9.31641 39.9609 9.62891C40.3359 9.94141 40.9453 10.0977 41.7891 10.0977C42.5391 10.0977 43.1289 9.93359 43.5586 9.60547C43.9883 9.27734 44.2461 8.69922 44.332 7.87109H46.1719ZM60.0234 14.8086H55.793V26H53.8711V14.8086H49.6992V13.1562H60.0234V14.8086ZM64.418 13.1562V21.2305C64.418 21.3867 64.4141 21.5898 64.4062 21.8398C64.3984 22.082 64.3867 22.3438 64.3711 22.625C64.3555 22.8984 64.3398 23.1641 64.3242 23.4219C64.3164 23.6719 64.3047 23.8789 64.2891 24.043L71.2969 13.1562H73.6875V26H71.8711V18.125C71.8711 17.875 71.875 17.5547 71.8828 17.1641C71.8906 16.7734 71.9023 16.3906 71.918 16.0156C71.9336 15.6328 71.9453 15.3359 71.9531 15.125L64.9688 26H62.5664V13.1562H64.418Z" fill="#333366"/>
</svg>
