<svg width="1440" height="143" viewBox="0 0 1440 143" fill="none" xmlns="http://www.w3.org/2000/svg">
<g filter="url(#filter0_d_107_685)">
<rect x="1" width="1439" height="135" fill="#ECECEC" fill-opacity="0.1" shape-rendering="crispEdges"/>
</g>
<path d="M444.973 58.7227H446.525V66.9746C446.525 67.2871 446.522 67.6289 446.516 68C446.509 68.3646 446.499 68.7227 446.486 69.0742C446.473 69.4258 446.457 69.7448 446.438 70.0312C446.424 70.3177 446.411 70.5391 446.398 70.6953H446.477L454.426 58.7227H456.252V73H454.699V64.8457C454.699 64.5007 454.706 64.1361 454.719 63.752C454.732 63.3613 454.745 62.9837 454.758 62.6191C454.777 62.2546 454.797 61.929 454.816 61.6426C454.836 61.3496 454.849 61.125 454.855 60.9688H454.768L446.809 73H444.973V58.7227ZM461.535 62.2969V66.7891H467.502V62.2969H469.123V73H467.502V68.166H461.535V73H459.904V62.2969H461.535ZM478.781 57.8047V62.1406C479.842 62.2318 480.767 62.5085 481.555 62.9707C482.342 63.4264 482.954 64.0482 483.391 64.8359C483.827 65.6237 484.045 66.5612 484.045 67.6484C484.045 68.7161 483.833 69.6471 483.41 70.4414C482.993 71.2357 482.391 71.8639 481.604 72.3262C480.822 72.7884 479.882 73.0651 478.781 73.1562V77.8047H477.199V73.1562C476.138 73.0781 475.214 72.8112 474.426 72.3555C473.645 71.8932 473.036 71.265 472.6 70.4707C472.163 69.6764 471.945 68.7357 471.945 67.6484C471.945 66.5612 472.154 65.6237 472.57 64.8359C472.993 64.0417 473.599 63.4167 474.387 62.9609C475.174 62.4987 476.128 62.2253 477.248 62.1406V57.8047H478.781ZM477.248 63.4883C476.421 63.5599 475.741 63.7682 475.207 64.1133C474.673 64.4583 474.276 64.9271 474.016 65.5195C473.762 66.112 473.635 66.8216 473.635 67.6484C473.635 68.4753 473.765 69.1882 474.025 69.7871C474.286 70.3796 474.683 70.8483 475.217 71.1934C475.751 71.5384 476.428 71.75 477.248 71.8281V63.4883ZM478.781 63.5078V71.8281C479.602 71.7435 480.275 71.5254 480.803 71.1738C481.337 70.8223 481.73 70.3503 481.984 69.7578C482.245 69.1654 482.375 68.4622 482.375 67.6484C482.375 66.4115 482.079 65.4447 481.486 64.748C480.894 64.0449 479.992 63.6315 478.781 63.5078ZM496.105 67.6289C496.105 68.5078 495.992 69.2923 495.764 69.9824C495.536 70.6725 495.207 71.2552 494.777 71.7305C494.348 72.2057 493.827 72.5703 493.215 72.8242C492.609 73.0716 491.923 73.1953 491.154 73.1953C490.438 73.1953 489.781 73.0716 489.182 72.8242C488.589 72.5703 488.075 72.2057 487.639 71.7305C487.209 71.2552 486.874 70.6725 486.633 69.9824C486.398 69.2923 486.281 68.5078 486.281 67.6289C486.281 66.457 486.48 65.4609 486.877 64.6406C487.274 63.8138 487.84 63.1855 488.576 62.7559C489.318 62.3197 490.201 62.1016 491.223 62.1016C492.199 62.1016 493.052 62.3197 493.781 62.7559C494.517 63.1921 495.087 63.8236 495.49 64.6504C495.9 65.4707 496.105 66.4635 496.105 67.6289ZM487.961 67.6289C487.961 68.4883 488.075 69.2337 488.303 69.8652C488.531 70.4967 488.882 70.985 489.357 71.3301C489.833 71.6751 490.445 71.8477 491.193 71.8477C491.936 71.8477 492.544 71.6751 493.02 71.3301C493.501 70.985 493.856 70.4967 494.084 69.8652C494.312 69.2337 494.426 68.4883 494.426 67.6289C494.426 66.776 494.312 66.0404 494.084 65.4219C493.856 64.7969 493.505 64.3151 493.029 63.9766C492.554 63.638 491.939 63.4688 491.184 63.4688C490.07 63.4688 489.253 63.8366 488.732 64.5723C488.218 65.3079 487.961 66.3268 487.961 67.6289ZM503.938 62.1016C505.272 62.1016 506.337 62.5605 507.131 63.4785C507.925 64.3965 508.322 65.7767 508.322 67.6191C508.322 68.8366 508.14 69.8587 507.775 70.6855C507.411 71.5124 506.896 72.1374 506.232 72.5605C505.575 72.9837 504.797 73.1953 503.898 73.1953C503.332 73.1953 502.834 73.1204 502.404 72.9707C501.975 72.821 501.607 72.6191 501.301 72.3652C500.995 72.1113 500.741 71.8346 500.539 71.5352H500.422C500.441 71.7891 500.464 72.0951 500.49 72.4531C500.523 72.8112 500.539 73.1237 500.539 73.3906V77.7852H498.908V62.2969H500.246L500.461 63.8789H500.539C500.747 63.5534 501.001 63.2572 501.301 62.9902C501.6 62.7168 501.965 62.502 502.395 62.3457C502.831 62.1829 503.345 62.1016 503.938 62.1016ZM503.654 63.4688C502.912 63.4688 502.313 63.612 501.857 63.8984C501.408 64.1849 501.079 64.6146 500.871 65.1875C500.663 65.7539 500.552 66.4668 500.539 67.3262V67.6387C500.539 68.5436 500.637 69.3086 500.832 69.9336C501.034 70.5586 501.363 71.0339 501.818 71.3594C502.281 71.6849 502.899 71.8477 503.674 71.8477C504.338 71.8477 504.891 71.6686 505.334 71.3105C505.777 70.9525 506.105 70.4544 506.32 69.8164C506.542 69.1719 506.652 68.4329 506.652 67.5996C506.652 66.3366 506.405 65.334 505.91 64.5918C505.422 63.8431 504.67 63.4688 503.654 63.4688ZM522.453 62.2969V73H520.988V66.0273C520.988 65.7409 520.995 65.4512 521.008 65.1582C521.027 64.8587 521.05 64.5592 521.076 64.2598H521.018L517.463 73H516.086L512.619 64.2598H512.561C512.58 64.5592 512.593 64.8587 512.6 65.1582C512.613 65.4512 512.619 65.7604 512.619 66.0859V73H511.145V62.2969H513.322L516.779 71.0469L520.285 62.2969H522.453ZM529.826 62.1211C531.102 62.1211 532.049 62.4076 532.668 62.9805C533.286 63.5534 533.596 64.4681 533.596 65.7246V73H532.414L532.102 71.418H532.023C531.724 71.8086 531.411 72.1374 531.086 72.4043C530.76 72.6647 530.383 72.8633 529.953 73C529.53 73.1302 529.009 73.1953 528.391 73.1953C527.74 73.1953 527.16 73.0814 526.652 72.8535C526.151 72.6257 525.754 72.2806 525.461 71.8184C525.174 71.3561 525.031 70.7702 525.031 70.0605C525.031 68.9928 525.454 68.1725 526.301 67.5996C527.147 67.0267 528.436 66.7142 530.168 66.6621L532.014 66.584V65.9297C532.014 65.0052 531.815 64.3574 531.418 63.9863C531.021 63.6152 530.461 63.4297 529.738 63.4297C529.178 63.4297 528.645 63.5111 528.137 63.6738C527.629 63.8366 527.147 64.0286 526.691 64.25L526.193 63.0195C526.675 62.7721 527.229 62.5605 527.854 62.3848C528.479 62.209 529.136 62.1211 529.826 62.1211ZM531.994 67.7266L530.363 67.7949C529.029 67.847 528.088 68.0651 527.541 68.4492C526.994 68.8333 526.721 69.377 526.721 70.0801C526.721 70.6921 526.906 71.1445 527.277 71.4375C527.648 71.7305 528.14 71.877 528.752 71.877C529.702 71.877 530.48 71.6133 531.086 71.0859C531.691 70.5586 531.994 69.7676 531.994 68.7129V67.7266ZM547.355 76.7012H545.773V73H536.936V62.2969H538.566V71.623H544.24V62.2969H545.861V71.6426H547.355V76.7012ZM550.998 62.2969V69.0254C550.998 69.1556 550.995 69.3249 550.988 69.5332C550.982 69.735 550.972 69.9531 550.959 70.1875C550.946 70.4154 550.933 70.6367 550.92 70.8516C550.913 71.0599 550.904 71.2324 550.891 71.3691L556.73 62.2969H558.723V73H557.209V66.4375C557.209 66.2292 557.212 65.9622 557.219 65.6367C557.225 65.3112 557.235 64.9922 557.248 64.6797C557.261 64.3607 557.271 64.1133 557.277 63.9375L551.457 73H549.455V62.2969H550.998ZM562.688 73H560.793L563.879 68.4883C563.43 68.3906 563.013 68.2246 562.629 67.9902C562.245 67.7493 561.932 67.4206 561.691 67.0039C561.457 66.5872 561.34 66.0697 561.34 65.4512C561.34 64.4225 561.682 63.6413 562.365 63.1074C563.055 62.5671 563.964 62.2969 565.09 62.2969H569.826V73H568.205V68.7031H565.49L562.688 73ZM562.912 65.4609C562.912 66.099 563.14 66.5742 563.596 66.8867C564.051 67.1927 564.702 67.3457 565.549 67.3457H568.205V63.6543H565.266C564.432 63.6543 563.83 63.8236 563.459 64.1621C563.094 64.4941 562.912 64.9271 562.912 65.4609Z" fill="#333366"/>
<path d="M781.338 73H779.668V60.1875H775.176V58.7227H785.811V60.1875H781.338V73ZM791.846 62.1016C792.757 62.1016 793.538 62.3034 794.189 62.707C794.84 63.1107 795.339 63.6771 795.684 64.4062C796.029 65.1289 796.201 65.9753 796.201 66.9453V67.9512H788.809C788.828 69.2077 789.141 70.1647 789.746 70.8223C790.352 71.4798 791.204 71.8086 792.305 71.8086C792.982 71.8086 793.581 71.7467 794.102 71.623C794.622 71.4993 795.163 71.3171 795.723 71.0762V72.502C795.182 72.7428 794.645 72.9186 794.111 73.0293C793.584 73.14 792.959 73.1953 792.236 73.1953C791.208 73.1953 790.309 72.987 789.541 72.5703C788.779 72.1471 788.187 71.5286 787.764 70.7148C787.34 69.901 787.129 68.9049 787.129 67.7266C787.129 66.5742 787.321 65.5781 787.705 64.7383C788.096 63.8919 788.643 63.2409 789.346 62.7852C790.055 62.3294 790.889 62.1016 791.846 62.1016ZM791.826 63.4297C790.96 63.4297 790.27 63.7129 789.756 64.2793C789.242 64.8457 788.936 65.6367 788.838 66.6523H794.502C794.495 66.0143 794.395 65.4544 794.199 64.9727C794.01 64.4844 793.721 64.1068 793.33 63.8398C792.939 63.5664 792.438 63.4297 791.826 63.4297ZM803.242 73.1953C802.279 73.1953 801.429 72.9967 800.693 72.5996C799.958 72.2025 799.385 71.597 798.975 70.7832C798.564 69.9694 798.359 68.944 798.359 67.707C798.359 66.4115 798.574 65.3535 799.004 64.5332C799.44 63.7064 800.039 63.0944 800.801 62.6973C801.562 62.3001 802.428 62.1016 803.398 62.1016C803.932 62.1016 804.447 62.1569 804.941 62.2676C805.443 62.3717 805.853 62.5052 806.172 62.668L805.684 64.0254C805.358 63.8952 804.98 63.778 804.551 63.6738C804.128 63.5697 803.73 63.5176 803.359 63.5176C802.617 63.5176 801.999 63.6771 801.504 63.9961C801.016 64.3151 800.648 64.7839 800.4 65.4023C800.16 66.0208 800.039 66.7826 800.039 67.6875C800.039 68.5534 800.156 69.2923 800.391 69.9043C800.632 70.5163 800.986 70.985 801.455 71.3105C801.93 71.6296 802.523 71.7891 803.232 71.7891C803.799 71.7891 804.31 71.7305 804.766 71.6133C805.221 71.4896 805.635 71.3464 806.006 71.1836V72.6289C805.648 72.8112 805.247 72.9512 804.805 73.0488C804.368 73.1465 803.848 73.1953 803.242 73.1953ZM815.84 63.6738H812.314V73H810.713V63.6738H807.236V62.2969H815.84V63.6738ZM817.959 73V62.2969H819.59V66.7109H822.52C823.431 66.7109 824.18 66.8249 824.766 67.0527C825.358 67.2806 825.798 67.6191 826.084 68.0684C826.37 68.5176 826.514 69.0742 826.514 69.7383C826.514 70.4023 826.37 70.9785 826.084 71.4668C825.804 71.9551 825.361 72.3327 824.756 72.5996C824.157 72.8665 823.376 73 822.412 73H817.959ZM819.59 71.6816H822.256C823.063 71.6816 823.708 71.5384 824.189 71.252C824.671 70.9655 824.912 70.487 824.912 69.8164C824.912 69.1589 824.688 68.7031 824.238 68.4492C823.789 68.1888 823.145 68.0586 822.305 68.0586H819.59V71.6816ZM828.281 73V62.2969H829.902V73H828.281Z" fill="#333366"/>
<path d="M883.904 73H882.254V67.082C881.492 67.3555 880.77 67.5768 880.086 67.7461C879.402 67.9154 878.644 68 877.811 68C876.463 68 875.428 67.6908 874.705 67.0723C873.989 66.4473 873.631 65.5521 873.631 64.3867V58.7227H875.291V64.1523C875.291 64.9401 875.499 65.5358 875.916 65.9395C876.339 66.3366 877.026 66.5352 877.977 66.5352C878.777 66.5352 879.493 66.4635 880.125 66.3203C880.763 66.1706 881.473 65.959 882.254 65.6855V58.7227H883.904V73ZM891.58 62.1211C892.856 62.1211 893.803 62.4076 894.422 62.9805C895.04 63.5534 895.35 64.4681 895.35 65.7246V73H894.168L893.855 71.418H893.777C893.478 71.8086 893.165 72.1374 892.84 72.4043C892.514 72.6647 892.137 72.8633 891.707 73C891.284 73.1302 890.763 73.1953 890.145 73.1953C889.493 73.1953 888.914 73.0814 888.406 72.8535C887.905 72.6257 887.508 72.2806 887.215 71.8184C886.928 71.3561 886.785 70.7702 886.785 70.0605C886.785 68.9928 887.208 68.1725 888.055 67.5996C888.901 67.0267 890.19 66.7142 891.922 66.6621L893.768 66.584V65.9297C893.768 65.0052 893.569 64.3574 893.172 63.9863C892.775 63.6152 892.215 63.4297 891.492 63.4297C890.932 63.4297 890.398 63.5111 889.891 63.6738C889.383 63.8366 888.901 64.0286 888.445 64.25L887.947 63.0195C888.429 62.7721 888.982 62.5605 889.607 62.3848C890.232 62.209 890.89 62.1211 891.58 62.1211ZM893.748 67.7266L892.117 67.7949C890.783 67.847 889.842 68.0651 889.295 68.4492C888.748 68.8333 888.475 69.377 888.475 70.0801C888.475 70.6921 888.66 71.1445 889.031 71.4375C889.402 71.7305 889.894 71.877 890.506 71.877C891.456 71.877 892.234 71.6133 892.84 71.0859C893.445 70.5586 893.748 69.7676 893.748 68.7129V67.7266ZM905.984 63.6738H902.459V73H900.857V63.6738H897.381V62.2969H905.984V63.6738Z" fill="#333366"/>
<path d="M957.109 73H955.449V60.1875H950.82C950.729 60.9167 950.632 61.6784 950.527 62.4727C950.423 63.2669 950.316 64.0579 950.205 64.8457C950.094 65.6335 949.984 66.3789 949.873 67.082C949.762 67.7852 949.652 68.4102 949.541 68.957C949.372 69.862 949.16 70.6335 948.906 71.2715C948.659 71.903 948.327 72.388 947.91 72.7266C947.5 73.0586 946.956 73.2246 946.279 73.2246C946.051 73.2246 945.824 73.2018 945.596 73.1562C945.374 73.1107 945.179 73.0553 945.01 72.9902V71.5938C945.16 71.6589 945.326 71.7142 945.508 71.7598C945.697 71.8053 945.895 71.8281 946.104 71.8281C946.514 71.8281 946.836 71.6654 947.07 71.3398C947.311 71.0078 947.5 70.5879 947.637 70.0801C947.78 69.5723 947.904 69.0514 948.008 68.5176C948.092 68.0749 948.19 67.515 948.301 66.8379C948.411 66.1608 948.529 65.3926 948.652 64.5332C948.776 63.6673 948.903 62.7428 949.033 61.7598C949.17 60.7767 949.303 59.7643 949.434 58.7227H957.109V73ZM962.314 62.2969V69.0254C962.314 69.1556 962.311 69.3249 962.305 69.5332C962.298 69.735 962.288 69.9531 962.275 70.1875C962.262 70.4154 962.249 70.6367 962.236 70.8516C962.23 71.0599 962.22 71.2324 962.207 71.3691L968.047 62.2969H970.039V73H968.525V66.4375C968.525 66.2292 968.529 65.9622 968.535 65.6367C968.542 65.3112 968.551 64.9922 968.564 64.6797C968.577 64.3607 968.587 64.1133 968.594 63.9375L962.773 73H960.771V62.2969H962.314ZM974.902 62.2969V66.1445C974.902 66.8151 975.085 67.3099 975.449 67.6289C975.82 67.9479 976.357 68.1074 977.061 68.1074C977.738 68.1074 978.353 68.0033 978.906 67.7949C979.46 67.5866 980.02 67.3034 980.586 66.9453V62.2969H982.207V73H980.586V68.2051C979.987 68.5892 979.398 68.8919 978.818 69.1133C978.239 69.3346 977.546 69.4453 976.738 69.4453C975.638 69.4453 974.785 69.1589 974.18 68.5859C973.581 68.013 973.281 67.2383 973.281 66.2617V62.2969H974.902ZM987.266 62.2969V66.7891H993.232V62.2969H994.854V73H993.232V68.166H987.266V73H985.635V62.2969H987.266ZM998.291 73V62.2969H999.922V66.7109H1002.85C1003.76 66.7109 1004.51 66.8249 1005.1 67.0527C1005.69 67.2806 1006.13 67.6191 1006.42 68.0684C1006.7 68.5176 1006.85 69.0742 1006.85 69.7383C1006.85 70.4023 1006.7 70.9785 1006.42 71.4668C1006.14 71.9551 1005.69 72.3327 1005.09 72.5996C1004.49 72.8665 1003.71 73 1002.74 73H998.291ZM999.922 71.6816H1002.59C1003.4 71.6816 1004.04 71.5384 1004.52 71.252C1005 70.9655 1005.24 70.487 1005.24 69.8164C1005.24 69.1589 1005.02 68.7031 1004.57 68.4492C1004.12 68.1888 1003.48 68.0586 1002.64 68.0586H999.922V71.6816ZM1008.61 73V62.2969H1010.23V73H1008.61ZM1015.21 62.2969V69.0254C1015.21 69.1556 1015.2 69.3249 1015.2 69.5332C1015.19 69.735 1015.18 69.9531 1015.17 70.1875C1015.15 70.4154 1015.14 70.6367 1015.13 70.8516C1015.12 71.0599 1015.11 71.2324 1015.1 71.3691L1020.94 62.2969H1022.93V73H1021.42V66.4375C1021.42 66.2292 1021.42 65.9622 1021.43 65.6367C1021.43 65.3112 1021.44 64.9922 1021.46 64.6797C1021.47 64.3607 1021.48 64.1133 1021.48 63.9375L1015.66 73H1013.66V62.2969H1015.21ZM1022.13 57.8926C1022.07 58.5501 1021.9 59.1003 1021.63 59.543C1021.36 59.9857 1020.97 60.321 1020.45 60.5488C1019.93 60.7702 1019.26 60.8809 1018.45 60.8809C1017.61 60.8809 1016.93 60.7734 1016.42 60.5586C1015.91 60.3372 1015.53 60.0052 1015.28 59.5625C1015.04 59.1198 1014.9 58.5632 1014.85 57.8926H1016.38C1016.45 58.6087 1016.64 59.097 1016.95 59.3574C1017.27 59.6178 1017.77 59.748 1018.48 59.748C1019.1 59.748 1019.59 59.6113 1019.95 59.3379C1020.31 59.0645 1020.52 58.5827 1020.6 57.8926H1022.13ZM1037.81 62.2969H1039.6L1034.98 67.4629L1039.97 73H1038.07L1033.2 67.5703V73H1031.57V62.2969H1033.2V67.4922L1037.81 62.2969ZM1045.91 62.1211C1047.18 62.1211 1048.13 62.4076 1048.75 62.9805C1049.37 63.5534 1049.68 64.4681 1049.68 65.7246V73H1048.5L1048.18 71.418H1048.11C1047.81 71.8086 1047.49 72.1374 1047.17 72.4043C1046.84 72.6647 1046.46 72.8633 1046.04 73C1045.61 73.1302 1045.09 73.1953 1044.47 73.1953C1043.82 73.1953 1043.24 73.0814 1042.73 72.8535C1042.23 72.6257 1041.84 72.2806 1041.54 71.8184C1041.26 71.3561 1041.11 70.7702 1041.11 70.0605C1041.11 68.9928 1041.54 68.1725 1042.38 67.5996C1043.23 67.0267 1044.52 66.7142 1046.25 66.6621L1048.1 66.584V65.9297C1048.1 65.0052 1047.9 64.3574 1047.5 63.9863C1047.1 63.6152 1046.54 63.4297 1045.82 63.4297C1045.26 63.4297 1044.73 63.5111 1044.22 63.6738C1043.71 63.8366 1043.23 64.0286 1042.77 64.25L1042.28 63.0195C1042.76 62.7721 1043.31 62.5605 1043.94 62.3848C1044.56 62.209 1045.22 62.1211 1045.91 62.1211ZM1048.08 67.7266L1046.45 67.7949C1045.11 67.847 1044.17 68.0651 1043.62 68.4492C1043.08 68.8333 1042.8 69.377 1042.8 70.0801C1042.8 70.6921 1042.99 71.1445 1043.36 71.4375C1043.73 71.7305 1044.22 71.877 1044.83 71.877C1045.78 71.877 1046.56 71.6133 1047.17 71.0859C1047.77 70.5586 1048.08 69.7676 1048.08 68.7129V67.7266ZM1052.46 66.5742C1052.46 65.0508 1052.61 63.752 1052.9 62.6777C1053.19 61.597 1053.65 60.7311 1054.26 60.0801C1054.88 59.4225 1055.67 58.9733 1056.64 58.7324C1057.47 58.5046 1058.32 58.3092 1059.18 58.1465C1060.04 57.9772 1060.88 57.8307 1061.69 57.707L1061.97 59.1328C1061.56 59.1914 1061.13 59.2598 1060.68 59.3379C1060.23 59.4095 1059.79 59.4876 1059.34 59.5723C1058.89 59.6504 1058.46 59.735 1058.07 59.8262C1057.67 59.9108 1057.32 59.9987 1057.01 60.0898C1056.46 60.2396 1055.98 60.5 1055.58 60.8711C1055.18 61.2422 1054.86 61.7533 1054.63 62.4043C1054.4 63.0553 1054.26 63.8757 1054.22 64.8652H1054.34C1054.53 64.5788 1054.8 64.2956 1055.14 64.0156C1055.48 63.7357 1055.88 63.5046 1056.35 63.3223C1056.82 63.1335 1057.34 63.0391 1057.93 63.0391C1058.85 63.0391 1059.63 63.2409 1060.24 63.6445C1060.86 64.0417 1061.33 64.6016 1061.64 65.3242C1061.95 66.0469 1062.11 66.8932 1062.11 67.8633C1062.11 69.0286 1061.91 70.0085 1061.5 70.8027C1061.11 71.597 1060.55 72.196 1059.82 72.5996C1059.1 72.9967 1058.25 73.1953 1057.28 73.1953C1056.52 73.1953 1055.84 73.0488 1055.24 72.7559C1054.65 72.4629 1054.15 72.0332 1053.73 71.4668C1053.32 70.9004 1053 70.207 1052.78 69.3867C1052.57 68.5664 1052.46 67.6289 1052.46 66.5742ZM1057.4 71.8477C1058.02 71.8477 1058.55 71.7174 1058.99 71.457C1059.44 71.1966 1059.79 70.7865 1060.03 70.2266C1060.28 69.6602 1060.4 68.9245 1060.4 68.0195C1060.4 66.8867 1060.18 66.0013 1059.75 65.3633C1059.32 64.7188 1058.63 64.3965 1057.68 64.3965C1057.08 64.3965 1056.55 64.5234 1056.06 64.7773C1055.58 65.0247 1055.18 65.321 1054.84 65.666C1054.51 66.0111 1054.27 66.3203 1054.12 66.5938C1054.12 67.2578 1054.17 67.9023 1054.27 68.5273C1054.37 69.1523 1054.53 69.7155 1054.78 70.2168C1055.02 70.7181 1055.35 71.1152 1055.77 71.4082C1056.2 71.7012 1056.74 71.8477 1057.4 71.8477ZM1066.46 62.2969V69.0254C1066.46 69.1556 1066.45 69.3249 1066.45 69.5332C1066.44 69.735 1066.43 69.9531 1066.42 70.1875C1066.4 70.4154 1066.39 70.6367 1066.38 70.8516C1066.37 71.0599 1066.36 71.2324 1066.35 71.3691L1072.19 62.2969H1074.18V73H1072.67V66.4375C1072.67 66.2292 1072.67 65.9622 1072.68 65.6367C1072.68 65.3112 1072.69 64.9922 1072.71 64.6797C1072.72 64.3607 1072.73 64.1133 1072.73 63.9375L1066.91 73H1064.91V62.2969H1066.46ZM1079.26 62.2969V66.7891H1085.22V62.2969H1086.85V73H1085.22V68.166H1079.26V73H1077.63V62.2969H1079.26ZM1094.4 62.1016C1095.32 62.1016 1096.1 62.3034 1096.75 62.707C1097.4 63.1107 1097.9 63.6771 1098.24 64.4062C1098.59 65.1289 1098.76 65.9753 1098.76 66.9453V67.9512H1091.37C1091.39 69.2077 1091.7 70.1647 1092.3 70.8223C1092.91 71.4798 1093.76 71.8086 1094.86 71.8086C1095.54 71.8086 1096.14 71.7467 1096.66 71.623C1097.18 71.4993 1097.72 71.3171 1098.28 71.0762V72.502C1097.74 72.7428 1097.2 72.9186 1096.67 73.0293C1096.14 73.14 1095.52 73.1953 1094.79 73.1953C1093.77 73.1953 1092.87 72.987 1092.1 72.5703C1091.34 72.1471 1090.75 71.5286 1090.32 70.7148C1089.9 69.901 1089.69 68.9049 1089.69 67.7266C1089.69 66.5742 1089.88 65.5781 1090.26 64.7383C1090.65 63.8919 1091.2 63.2409 1091.9 62.7852C1092.61 62.3294 1093.45 62.1016 1094.4 62.1016ZM1094.38 63.4297C1093.52 63.4297 1092.83 63.7129 1092.31 64.2793C1091.8 64.8457 1091.49 65.6367 1091.4 66.6523H1097.06C1097.05 66.0143 1096.95 65.4544 1096.76 64.9727C1096.57 64.4844 1096.28 64.1068 1095.89 63.8398C1095.5 63.5664 1095 63.4297 1094.38 63.4297ZM1108.81 63.6738H1105.28V73H1103.68V63.6738H1100.21V62.2969H1108.81V63.6738Z" fill="#333366"/>
<rect x="1220" y="39" width="194" height="56" rx="28" fill="url(#paint0_linear_107_685)"/>
<path d="M1253.34 73H1251.67V60.1875H1247.18V58.7227H1257.81V60.1875H1253.34V73ZM1263.85 62.1016C1264.76 62.1016 1265.54 62.3034 1266.19 62.707C1266.84 63.1107 1267.34 63.6771 1267.68 64.4062C1268.03 65.1289 1268.2 65.9753 1268.2 66.9453V67.9512H1260.81C1260.83 69.2077 1261.14 70.1647 1261.75 70.8223C1262.35 71.4798 1263.2 71.8086 1264.3 71.8086C1264.98 71.8086 1265.58 71.7467 1266.1 71.623C1266.62 71.4993 1267.16 71.3171 1267.72 71.0762V72.502C1267.18 72.7428 1266.65 72.9186 1266.11 73.0293C1265.58 73.14 1264.96 73.1953 1264.24 73.1953C1263.21 73.1953 1262.31 72.987 1261.54 72.5703C1260.78 72.1471 1260.19 71.5286 1259.76 70.7148C1259.34 69.901 1259.13 68.9049 1259.13 67.7266C1259.13 66.5742 1259.32 65.5781 1259.71 64.7383C1260.1 63.8919 1260.64 63.2409 1261.35 62.7852C1262.06 62.3294 1262.89 62.1016 1263.85 62.1016ZM1263.83 63.4297C1262.96 63.4297 1262.27 63.7129 1261.76 64.2793C1261.24 64.8457 1260.94 65.6367 1260.84 66.6523H1266.5C1266.5 66.0143 1266.39 65.4544 1266.2 64.9727C1266.01 64.4844 1265.72 64.1068 1265.33 63.8398C1264.94 63.5664 1264.44 63.4297 1263.83 63.4297ZM1273.5 67.5215L1269.8 62.2969H1271.66L1274.48 66.418L1277.29 62.2969H1279.13L1275.43 67.5215L1279.33 73H1277.48L1274.48 68.6348L1271.46 73H1269.63L1273.5 67.5215ZM1290.39 62.2969V73H1288.76V63.6934H1283.05V73H1281.42V62.2969H1290.39ZM1303.05 67.6289C1303.05 68.5078 1302.94 69.2923 1302.71 69.9824C1302.49 70.6725 1302.16 71.2552 1301.73 71.7305C1301.3 72.2057 1300.78 72.5703 1300.16 72.8242C1299.56 73.0716 1298.87 73.1953 1298.1 73.1953C1297.39 73.1953 1296.73 73.0716 1296.13 72.8242C1295.54 72.5703 1295.02 72.2057 1294.59 71.7305C1294.16 71.2552 1293.82 70.6725 1293.58 69.9824C1293.35 69.2923 1293.23 68.5078 1293.23 67.6289C1293.23 66.457 1293.43 65.4609 1293.83 64.6406C1294.22 63.8138 1294.79 63.1855 1295.53 62.7559C1296.27 62.3197 1297.15 62.1016 1298.17 62.1016C1299.15 62.1016 1300 62.3197 1300.73 62.7559C1301.47 63.1921 1302.04 63.8236 1302.44 64.6504C1302.85 65.4707 1303.05 66.4635 1303.05 67.6289ZM1294.91 67.6289C1294.91 68.4883 1295.02 69.2337 1295.25 69.8652C1295.48 70.4967 1295.83 70.985 1296.31 71.3301C1296.78 71.6751 1297.39 71.8477 1298.14 71.8477C1298.88 71.8477 1299.49 71.6751 1299.97 71.3301C1300.45 70.985 1300.81 70.4967 1301.03 69.8652C1301.26 69.2337 1301.38 68.4883 1301.38 67.6289C1301.38 66.776 1301.26 66.0404 1301.03 65.4219C1300.81 64.7969 1300.45 64.3151 1299.98 63.9766C1299.5 63.638 1298.89 63.4688 1298.13 63.4688C1297.02 63.4688 1296.2 63.8366 1295.68 64.5723C1295.17 65.3079 1294.91 66.3268 1294.91 67.6289ZM1313.7 62.2969V71.623H1315.23V76.7012H1313.66V73H1306.08V76.7012H1304.53V71.623H1305.37C1305.98 70.7767 1306.49 69.849 1306.89 68.8398C1307.3 67.8307 1307.6 66.7728 1307.81 65.666C1308.02 64.5527 1308.13 63.4297 1308.14 62.2969H1313.7ZM1312.13 63.5859H1309.59C1309.53 64.5365 1309.39 65.5033 1309.17 66.4863C1308.95 67.4694 1308.67 68.4069 1308.31 69.2988C1307.95 70.1842 1307.53 70.959 1307.06 71.623H1312.13V63.5859ZM1325.2 62.2969V71.623H1326.74V76.7012H1325.16V73H1317.59V76.7012H1316.03V71.623H1316.87C1317.49 70.7767 1317.99 69.849 1318.4 68.8398C1318.8 67.8307 1319.11 66.7728 1319.31 65.666C1319.52 64.5527 1319.63 63.4297 1319.65 62.2969H1325.2ZM1323.63 63.5859H1321.09C1321.03 64.5365 1320.89 65.5033 1320.67 66.4863C1320.46 67.4694 1320.17 68.4069 1319.81 69.2988C1319.45 70.1842 1319.04 70.959 1318.56 71.623H1323.63V63.5859ZM1332.99 62.1016C1333.9 62.1016 1334.68 62.3034 1335.33 62.707C1335.98 63.1107 1336.48 63.6771 1336.82 64.4062C1337.17 65.1289 1337.34 65.9753 1337.34 66.9453V67.9512H1329.95C1329.97 69.2077 1330.28 70.1647 1330.89 70.8223C1331.49 71.4798 1332.35 71.8086 1333.45 71.8086C1334.12 71.8086 1334.72 71.7467 1335.24 71.623C1335.76 71.4993 1336.3 71.3171 1336.86 71.0762V72.502C1336.32 72.7428 1335.79 72.9186 1335.25 73.0293C1334.72 73.14 1334.1 73.1953 1333.38 73.1953C1332.35 73.1953 1331.45 72.987 1330.68 72.5703C1329.92 72.1471 1329.33 71.5286 1328.9 70.7148C1328.48 69.901 1328.27 68.9049 1328.27 67.7266C1328.27 66.5742 1328.46 65.5781 1328.85 64.7383C1329.24 63.8919 1329.78 63.2409 1330.49 62.7852C1331.2 62.3294 1332.03 62.1016 1332.99 62.1016ZM1332.97 63.4297C1332.1 63.4297 1331.41 63.7129 1330.9 64.2793C1330.38 64.8457 1330.08 65.6367 1329.98 66.6523H1335.64C1335.64 66.0143 1335.54 65.4544 1335.34 64.9727C1335.15 64.4844 1334.86 64.1068 1334.47 63.8398C1334.08 63.5664 1333.58 63.4297 1332.97 63.4297ZM1345.12 62.1016C1346.46 62.1016 1347.52 62.5605 1348.32 63.4785C1349.11 64.3965 1349.51 65.7767 1349.51 67.6191C1349.51 68.8366 1349.33 69.8587 1348.96 70.6855C1348.6 71.5124 1348.08 72.1374 1347.42 72.5605C1346.76 72.9837 1345.98 73.1953 1345.09 73.1953C1344.52 73.1953 1344.02 73.1204 1343.59 72.9707C1343.16 72.821 1342.79 72.6191 1342.49 72.3652C1342.18 72.1113 1341.93 71.8346 1341.73 71.5352H1341.61C1341.63 71.7891 1341.65 72.0951 1341.68 72.4531C1341.71 72.8112 1341.73 73.1237 1341.73 73.3906V77.7852H1340.1V62.2969H1341.43L1341.65 63.8789H1341.73C1341.93 63.5534 1342.19 63.2572 1342.49 62.9902C1342.79 62.7168 1343.15 62.502 1343.58 62.3457C1344.02 62.1829 1344.53 62.1016 1345.12 62.1016ZM1344.84 63.4688C1344.1 63.4688 1343.5 63.612 1343.04 63.8984C1342.6 64.1849 1342.27 64.6146 1342.06 65.1875C1341.85 65.7539 1341.74 66.4668 1341.73 67.3262V67.6387C1341.73 68.5436 1341.82 69.3086 1342.02 69.9336C1342.22 70.5586 1342.55 71.0339 1343.01 71.3594C1343.47 71.6849 1344.09 71.8477 1344.86 71.8477C1345.53 71.8477 1346.08 71.6686 1346.52 71.3105C1346.96 70.9525 1347.29 70.4544 1347.51 69.8164C1347.73 69.1719 1347.84 68.4329 1347.84 67.5996C1347.84 66.3366 1347.59 65.334 1347.1 64.5918C1346.61 63.8431 1345.86 63.4688 1344.84 63.4688ZM1364.88 62.2969L1360.43 67.502L1365.26 73H1363.41L1358.72 67.5703V73H1357.21V67.5703L1352.53 73H1350.67L1355.51 67.502L1351.04 62.2969H1352.83L1357.21 67.4922V62.2969H1358.72V67.4922L1363.11 62.2969H1364.88ZM1373.29 62.2969H1375.08L1370.46 67.4629L1375.45 73H1373.54L1368.68 67.5703V73H1367.05V62.2969H1368.68V67.4922L1373.29 62.2969ZM1381.38 62.1211C1382.66 62.1211 1383.61 62.4076 1384.23 62.9805C1384.85 63.5534 1385.15 64.4681 1385.15 65.7246V73H1383.97L1383.66 71.418H1383.58C1383.28 71.8086 1382.97 72.1374 1382.64 72.4043C1382.32 72.6647 1381.94 72.8633 1381.51 73C1381.09 73.1302 1380.57 73.1953 1379.95 73.1953C1379.3 73.1953 1378.72 73.0814 1378.21 72.8535C1377.71 72.6257 1377.31 72.2806 1377.02 71.8184C1376.73 71.3561 1376.59 70.7702 1376.59 70.0605C1376.59 68.9928 1377.01 68.1725 1377.86 67.5996C1378.71 67.0267 1379.99 66.7142 1381.73 66.6621L1383.57 66.584V65.9297C1383.57 65.0052 1383.37 64.3574 1382.98 63.9863C1382.58 63.6152 1382.02 63.4297 1381.3 63.4297C1380.74 63.4297 1380.2 63.5111 1379.7 63.6738C1379.19 63.8366 1378.71 64.0286 1378.25 64.25L1377.75 63.0195C1378.23 62.7721 1378.79 62.5605 1379.41 62.3848C1380.04 62.209 1380.69 62.1211 1381.38 62.1211ZM1383.55 67.7266L1381.92 67.7949C1380.59 67.847 1379.65 68.0651 1379.1 68.4492C1378.55 68.8333 1378.28 69.377 1378.28 70.0801C1378.28 70.6921 1378.46 71.1445 1378.84 71.4375C1379.21 71.7305 1379.7 71.877 1380.31 71.877C1381.26 71.877 1382.04 71.6133 1382.64 71.0859C1383.25 70.5586 1383.55 69.7676 1383.55 68.7129V67.7266Z" fill="#333366"/>
<path d="M622.188 73H620.176L613.613 65.7539V73H611.953V58.7227H613.613V65.6367L620.01 58.7227H621.914L615.596 65.6562L622.188 73ZM627.92 62.1211C629.196 62.1211 630.143 62.4076 630.762 62.9805C631.38 63.5534 631.689 64.4681 631.689 65.7246V73H630.508L630.195 71.418H630.117C629.818 71.8086 629.505 72.1374 629.18 72.4043C628.854 72.6647 628.477 72.8633 628.047 73C627.624 73.1302 627.103 73.1953 626.484 73.1953C625.833 73.1953 625.254 73.0814 624.746 72.8535C624.245 72.6257 623.848 72.2806 623.555 71.8184C623.268 71.3561 623.125 70.7702 623.125 70.0605C623.125 68.9928 623.548 68.1725 624.395 67.5996C625.241 67.0267 626.53 66.7142 628.262 66.6621L630.107 66.584V65.9297C630.107 65.0052 629.909 64.3574 629.512 63.9863C629.115 63.6152 628.555 63.4297 627.832 63.4297C627.272 63.4297 626.738 63.5111 626.23 63.6738C625.723 63.8366 625.241 64.0286 624.785 64.25L624.287 63.0195C624.769 62.7721 625.322 62.5605 625.947 62.3848C626.572 62.209 627.23 62.1211 627.92 62.1211ZM630.088 67.7266L628.457 67.7949C627.122 67.847 626.182 68.0651 625.635 68.4492C625.088 68.8333 624.814 69.377 624.814 70.0801C624.814 70.6921 625 71.1445 625.371 71.4375C625.742 71.7305 626.234 71.877 626.846 71.877C627.796 71.877 628.574 71.6133 629.18 71.0859C629.785 70.5586 630.088 69.7676 630.088 68.7129V67.7266ZM640.059 62.1016C641.393 62.1016 642.458 62.5605 643.252 63.4785C644.046 64.3965 644.443 65.7767 644.443 67.6191C644.443 68.8366 644.261 69.8587 643.896 70.6855C643.532 71.5124 643.018 72.1374 642.354 72.5605C641.696 72.9837 640.918 73.1953 640.02 73.1953C639.453 73.1953 638.955 73.1204 638.525 72.9707C638.096 72.821 637.728 72.6191 637.422 72.3652C637.116 72.1113 636.862 71.8346 636.66 71.5352H636.543C636.562 71.7891 636.585 72.0951 636.611 72.4531C636.644 72.8112 636.66 73.1237 636.66 73.3906V77.7852H635.029V62.2969H636.367L636.582 63.8789H636.66C636.868 63.5534 637.122 63.2572 637.422 62.9902C637.721 62.7168 638.086 62.502 638.516 62.3457C638.952 62.1829 639.466 62.1016 640.059 62.1016ZM639.775 63.4688C639.033 63.4688 638.434 63.612 637.979 63.8984C637.529 64.1849 637.201 64.6146 636.992 65.1875C636.784 65.7539 636.673 66.4668 636.66 67.3262V67.6387C636.66 68.5436 636.758 69.3086 636.953 69.9336C637.155 70.5586 637.484 71.0339 637.939 71.3594C638.402 71.6849 639.02 71.8477 639.795 71.8477C640.459 71.8477 641.012 71.6686 641.455 71.3105C641.898 70.9525 642.227 70.4544 642.441 69.8164C642.663 69.1719 642.773 68.4329 642.773 67.5996C642.773 66.3366 642.526 65.334 642.031 64.5918C641.543 63.8431 640.791 63.4688 639.775 63.4688ZM654.57 63.6738H651.045V73H649.443V63.6738H645.967V62.2969H654.57V63.6738ZM660.693 62.1211C661.969 62.1211 662.917 62.4076 663.535 62.9805C664.154 63.5534 664.463 64.4681 664.463 65.7246V73H663.281L662.969 71.418H662.891C662.591 71.8086 662.279 72.1374 661.953 72.4043C661.628 72.6647 661.25 72.8633 660.82 73C660.397 73.1302 659.876 73.1953 659.258 73.1953C658.607 73.1953 658.027 73.0814 657.52 72.8535C657.018 72.6257 656.621 72.2806 656.328 71.8184C656.042 71.3561 655.898 70.7702 655.898 70.0605C655.898 68.9928 656.322 68.1725 657.168 67.5996C658.014 67.0267 659.303 66.7142 661.035 66.6621L662.881 66.584V65.9297C662.881 65.0052 662.682 64.3574 662.285 63.9863C661.888 63.6152 661.328 63.4297 660.605 63.4297C660.046 63.4297 659.512 63.5111 659.004 63.6738C658.496 63.8366 658.014 64.0286 657.559 64.25L657.061 63.0195C657.542 62.7721 658.096 62.5605 658.721 62.3848C659.346 62.209 660.003 62.1211 660.693 62.1211ZM662.861 67.7266L661.23 67.7949C659.896 67.847 658.955 68.0651 658.408 68.4492C657.861 68.8333 657.588 69.377 657.588 70.0801C657.588 70.6921 657.773 71.1445 658.145 71.4375C658.516 71.7305 659.007 71.877 659.619 71.877C660.57 71.877 661.348 71.6133 661.953 71.0859C662.559 70.5586 662.861 69.7676 662.861 68.7129V67.7266ZM682.227 67.6289C682.227 68.5078 682.113 69.2923 681.885 69.9824C681.657 70.6725 681.328 71.2552 680.898 71.7305C680.469 72.2057 679.948 72.5703 679.336 72.8242C678.73 73.0716 678.044 73.1953 677.275 73.1953C676.559 73.1953 675.902 73.0716 675.303 72.8242C674.71 72.5703 674.196 72.2057 673.76 71.7305C673.33 71.2552 672.995 70.6725 672.754 69.9824C672.52 69.2923 672.402 68.5078 672.402 67.6289C672.402 66.457 672.601 65.4609 672.998 64.6406C673.395 63.8138 673.962 63.1855 674.697 62.7559C675.439 62.3197 676.322 62.1016 677.344 62.1016C678.32 62.1016 679.173 62.3197 679.902 62.7559C680.638 63.1921 681.208 63.8236 681.611 64.6504C682.021 65.4707 682.227 66.4635 682.227 67.6289ZM674.082 67.6289C674.082 68.4883 674.196 69.2337 674.424 69.8652C674.652 70.4967 675.003 70.985 675.479 71.3301C675.954 71.6751 676.566 71.8477 677.314 71.8477C678.057 71.8477 678.665 71.6751 679.141 71.3301C679.622 70.985 679.977 70.4967 680.205 69.8652C680.433 69.2337 680.547 68.4883 680.547 67.6289C680.547 66.776 680.433 66.0404 680.205 65.4219C679.977 64.7969 679.626 64.3151 679.15 63.9766C678.675 63.638 678.06 63.4688 677.305 63.4688C676.191 63.4688 675.374 63.8366 674.854 64.5723C674.339 65.3079 674.082 66.3268 674.082 67.6289ZM691.25 57.8047V62.1406C692.311 62.2318 693.236 62.5085 694.023 62.9707C694.811 63.4264 695.423 64.0482 695.859 64.8359C696.296 65.6237 696.514 66.5612 696.514 67.6484C696.514 68.7161 696.302 69.6471 695.879 70.4414C695.462 71.2357 694.86 71.8639 694.072 72.3262C693.291 72.7884 692.35 73.0651 691.25 73.1562V77.8047H689.668V73.1562C688.607 73.0781 687.682 72.8112 686.895 72.3555C686.113 71.8932 685.505 71.265 685.068 70.4707C684.632 69.6764 684.414 68.7357 684.414 67.6484C684.414 66.5612 684.622 65.6237 685.039 64.8359C685.462 64.0417 686.068 63.4167 686.855 62.9609C687.643 62.4987 688.597 62.2253 689.717 62.1406V57.8047H691.25ZM689.717 63.4883C688.89 63.5599 688.21 63.7682 687.676 64.1133C687.142 64.4583 686.745 64.9271 686.484 65.5195C686.23 66.112 686.104 66.8216 686.104 67.6484C686.104 68.4753 686.234 69.1882 686.494 69.7871C686.755 70.3796 687.152 70.8483 687.686 71.1934C688.219 71.5384 688.896 71.75 689.717 71.8281V63.4883ZM691.25 63.5078V71.8281C692.07 71.7435 692.744 71.5254 693.271 71.1738C693.805 70.8223 694.199 70.3503 694.453 69.7578C694.714 69.1654 694.844 68.4622 694.844 67.6484C694.844 66.4115 694.548 65.4447 693.955 64.748C693.363 64.0449 692.461 63.6315 691.25 63.5078ZM700.889 62.2969V69.0254C700.889 69.1556 700.885 69.3249 700.879 69.5332C700.872 69.735 700.863 69.9531 700.85 70.1875C700.837 70.4154 700.824 70.6367 700.811 70.8516C700.804 71.0599 700.794 71.2324 700.781 71.3691L706.621 62.2969H708.613V73H707.1V66.4375C707.1 66.2292 707.103 65.9622 707.109 65.6367C707.116 65.3112 707.126 64.9922 707.139 64.6797C707.152 64.3607 707.161 64.1133 707.168 63.9375L701.348 73H699.346V62.2969H700.889ZM716.348 73.1953C715.384 73.1953 714.535 72.9967 713.799 72.5996C713.063 72.2025 712.49 71.597 712.08 70.7832C711.67 69.9694 711.465 68.944 711.465 67.707C711.465 66.4115 711.68 65.3535 712.109 64.5332C712.546 63.7064 713.145 63.0944 713.906 62.6973C714.668 62.3001 715.534 62.1016 716.504 62.1016C717.038 62.1016 717.552 62.1569 718.047 62.2676C718.548 62.3717 718.958 62.5052 719.277 62.668L718.789 64.0254C718.464 63.8952 718.086 63.778 717.656 63.6738C717.233 63.5697 716.836 63.5176 716.465 63.5176C715.723 63.5176 715.104 63.6771 714.609 63.9961C714.121 64.3151 713.753 64.7839 713.506 65.4023C713.265 66.0208 713.145 66.7826 713.145 67.6875C713.145 68.5534 713.262 69.2923 713.496 69.9043C713.737 70.5163 714.092 70.985 714.561 71.3105C715.036 71.6296 715.628 71.7891 716.338 71.7891C716.904 71.7891 717.415 71.7305 717.871 71.6133C718.327 71.4896 718.74 71.3464 719.111 71.1836V72.6289C718.753 72.8112 718.353 72.9512 717.91 73.0488C717.474 73.1465 716.953 73.1953 716.348 73.1953ZM725.654 62.1211C726.93 62.1211 727.878 62.4076 728.496 62.9805C729.115 63.5534 729.424 64.4681 729.424 65.7246V73H728.242L727.93 71.418H727.852C727.552 71.8086 727.24 72.1374 726.914 72.4043C726.589 72.6647 726.211 72.8633 725.781 73C725.358 73.1302 724.837 73.1953 724.219 73.1953C723.568 73.1953 722.988 73.0814 722.48 72.8535C721.979 72.6257 721.582 72.2806 721.289 71.8184C721.003 71.3561 720.859 70.7702 720.859 70.0605C720.859 68.9928 721.283 68.1725 722.129 67.5996C722.975 67.0267 724.264 66.7142 725.996 66.6621L727.842 66.584V65.9297C727.842 65.0052 727.643 64.3574 727.246 63.9863C726.849 63.6152 726.289 63.4297 725.566 63.4297C725.007 63.4297 724.473 63.5111 723.965 63.6738C723.457 63.8366 722.975 64.0286 722.52 64.25L722.021 63.0195C722.503 62.7721 723.057 62.5605 723.682 62.3848C724.307 62.209 724.964 62.1211 725.654 62.1211ZM727.822 67.7266L726.191 67.7949C724.857 67.847 723.916 68.0651 723.369 68.4492C722.822 68.8333 722.549 69.377 722.549 70.0801C722.549 70.6921 722.734 71.1445 723.105 71.4375C723.477 71.7305 723.968 71.877 724.58 71.877C725.531 71.877 726.309 71.6133 726.914 71.0859C727.52 70.5586 727.822 69.7676 727.822 68.7129V67.7266Z" fill="#333366"/>
<path d="M73.3604 83.3972L74.1171 82.1355C74.2432 82.0093 77.9009 87.3084 77.9009 87.1822L73.3604 83.3972ZM45.7387 70.7804C45.7387 70.7804 47.5045 72.0421 47.6306 72.1682C47.7568 72.1682 52.1712 71.5374 54.8198 71.4112L47.7568 77.215L45.7387 70.7804ZM42.0811 68.257C42.0811 68.257 44.2252 69.5187 44.7297 69.8972C44.8559 69.8972 46.8739 77.972 47 77.972C47 78.0981 45.8649 86.4252 45.8649 86.1729L42.0811 68.257ZM41.7027 65.8598L43.3423 65.1028L44.4775 69.014C44.4775 69.014 41.955 67.2477 41.955 67.3738C42.0811 67.2477 41.7027 65.8598 41.7027 65.8598ZM44.982 64.0935L47.1261 70.6542C46.3694 70.1495 45.3604 69.3925 45.3604 69.3925C45.2342 69.3925 43.973 64.472 43.973 64.472L44.982 64.0935ZM45.6126 63.8411C45.6126 63.8411 50.7838 61.3178 50.5315 61.3178L55.4505 70.7804L48.1351 71.4112L45.6126 63.8411ZM45.8649 54L48.5135 59.0467C48.6396 59.0467 43.973 54.757 43.973 54.6308L45.8649 54ZM42.3333 53.8738C42.2072 54 48.1351 60.1822 49.2703 60.9393L45.3604 62.9579L42.3333 53.8738ZM47.3784 53.3692L48.009 53.1168C48.009 53.1168 48.2613 53.7477 49.5225 55.7664L68.8198 88.5701C69.955 90.4626 75.3784 99.1682 75.6306 100.43C72.4775 98.6636 49.018 89.8318 46.6216 88.3178L47.6306 79.486C47.8829 77.5935 48.009 78.0981 50.6577 75.8271C51.6667 74.9439 56.3333 71.285 56.4595 70.7804L47.3784 53.3692ZM81.3063 53.4953C81.4324 53.4953 86.4775 54.6308 87.7387 55.0093C87.7387 54.8832 92.4054 57.785 95.9369 60.4346C97.4505 61.5701 100.351 63.9673 100.351 63.9673C100.351 63.9673 82.1892 53.4953 81.3063 53.4953ZM48.7658 52.8645L50.5315 52.486C51.6667 53.8738 52.8018 55.7664 53.9369 57.2804L71.3423 81.8832C72.7297 83.9019 73.4865 84.5327 75.3784 86.0467C76.8919 87.3084 80.0451 89.7056 80.1712 89.8318C80.1712 89.8318 77.2703 99.2944 76.5135 100.178L52.2973 59.1729C51.036 57.1542 50.027 54.8832 48.7658 52.8645ZM51.2883 52.1075L71.5946 78.729C72.0991 79.486 72.3514 79.7383 72.982 80.6215C73.3604 81.1262 73.7387 81.6308 73.7387 81.6308C73.7387 81.6308 72.982 82.7664 72.8559 82.7664L56.7117 60.0561C55.8288 58.7944 54.9459 57.4065 54.0631 56.271L51.2883 52.1075ZM52.4234 51.8551L54.4414 51.2243C55.3243 52.2336 56.3333 53.1168 57.2162 54.1262L68.5676 66.4907C69.5766 67.6262 70.3333 68.7617 71.4685 69.771L77.1441 75.9533C77.1441 76.0794 74.8739 79.486 74.1171 80.8738L52.4234 51.8551ZM55.3243 50.8458C59.2342 49.4579 61.8829 48.5748 61.8829 48.7009C61.8829 48.7009 66.6757 52.2336 73.3604 57.028L90.2613 69.2664L77.7748 75.3224C77.7748 75.3224 77.6487 75.1963 77.018 74.5654L55.3243 50.8458ZM64.6577 49.0794C64.5315 49.0794 76.1351 52.1075 76.009 51.9813C79.6667 52.9907 82.8198 55.1355 85.8469 56.7757L104.514 67.3738L96.3153 71.1589L88.2432 65.7336C85.7207 63.9673 83.1982 62.0748 80.4234 60.3084C77.7748 58.5421 75.2523 56.6495 72.6036 54.757L64.6577 49.0794ZM39.0541 46.9346L44.7297 63.3364L43.973 63.715L39.0541 46.9346ZM36.027 38.7336L43.0901 64.2196L41.4505 64.8505C41.4505 64.8505 36.027 40.7523 36.027 38.7336ZM51.5405 36.715C53.5586 37.7243 85.973 53.6215 86.2252 53.6215C86.2252 53.6215 78.7838 51.6028 78.6577 51.6028C78.5315 51.6028 51.5405 36.8411 51.5405 36.715ZM39.1802 36.5888L47.1261 47.8178C48.1351 49.3318 49.1441 50.3411 49.9009 51.9813L48.2613 52.3598C46.7477 49.8364 45.3604 47.3131 43.7207 44.6636C42.2072 41.8879 40.6937 39.4907 39.1802 36.5888ZM40.1892 35.5794C41.1982 36.0841 46.1171 41.8879 47.1261 43.1495C47.6306 43.7804 48.3874 44.285 48.8919 44.9159L53.9369 50.5935L51.6667 51.3505L40.1892 35.5794ZM36.5315 35.4533L45.6126 53.243L43.4685 53.8738L36.5315 35.4533ZM40.4414 31.7944C44.7297 33.5607 75 50.8458 75.2523 50.8458C75.1261 50.972 62.8919 47.5654 62.7658 47.4393C62.7658 47.4393 61.1261 46.4299 60.3694 45.9252C60.1171 45.6729 59.8649 45.5467 59.6126 45.2944L40.4414 31.7944ZM36.6577 30.2804L48.8919 39.1122C51.036 40.6262 52.9279 42.1402 55.0721 43.6542L61.1261 47.9439C61.1261 47.9439 56.3333 49.5841 54.8198 50.0888C52.8018 48.3224 52.045 47.0607 50.4054 45.2944L38.9279 32.9299C37.7928 31.6682 37.5405 31.7944 36.6577 30.2804ZM77.1441 101.818C77.6487 98.0327 81.1802 89.8318 80.9279 89.8318C80.8018 89.5794 75.3784 83.1449 74.6216 81.3785C74.7477 81.2523 77.3964 76.8364 77.9009 76.3318C78.027 76.2056 90.8919 70.1495 91.018 70.1495C91.018 70.2757 94.8018 72.7991 94.8018 72.9252C94.6757 73.1776 106.027 67.6262 106.027 67.6262C106.027 67.5 95.8108 59.6776 93.9189 58.2897C90.7658 55.8925 89.3784 54.757 87.4865 53.7477C79.9189 49.3318 34.7658 27.1262 33 27C33 27 39.6847 65.986 39.5586 66.1122C39.5586 66.1122 41.1982 67.8785 41.3243 67.8785C41.4505 68.1308 41.4505 68.3832 41.5766 69.5187L45.3604 87.9393C45.7387 89.4533 45.7387 89.2009 47.2523 89.7056L55.3243 93.1122C58.8559 94.6262 62.3874 95.8878 65.7928 97.4019C67.9369 98.1589 75.1261 101.565 77.1441 101.818Z" fill="#333366"/>
<path d="M120.91 47.0607H116.369C115.991 47.0607 115.865 46.9345 115.865 46.4299V45.042C115.865 44.6635 115.991 44.5374 116.369 44.5374H128.477C129.108 44.5374 129.234 44.6635 129.234 45.1682L129.108 46.556C129.108 46.9346 128.856 47.0607 128.351 47.0607H124.063V60.5607C124.063 60.9392 123.937 61.1916 123.432 61.1916H121.541C121.162 61.1916 120.91 61.0654 120.91 60.5607V47.0607Z" fill="#333366"/>
<path d="M141.342 46.6823V45.2944C141.342 44.7897 141.468 44.6636 141.973 44.6636H143.865C144.243 44.6636 144.496 44.7897 144.496 45.2944V60.6869C144.496 61.0654 144.369 61.3178 143.865 61.3178H141.973C141.468 61.3178 141.342 61.1916 141.342 60.6869V50.7196L134.153 59.0468V60.6869C134.153 61.0654 134.027 61.3178 133.523 61.3178H131.631C131.126 61.3178 131 61.1916 131 60.6869V45.2944C131 44.7897 131.126 44.6636 131.631 44.6636H133.523C133.901 44.6636 134.153 44.7897 134.153 45.2944V55.2617L141.342 46.6823Z" fill="#333366"/>
<path d="M151.559 47.0607H147.018C146.64 47.0607 146.514 46.9345 146.514 46.4299V45.042C146.514 44.6635 146.64 44.5374 147.018 44.5374H159.126C159.757 44.5374 159.883 44.6635 159.883 45.1682L159.757 46.556C159.757 46.9346 159.505 47.0607 159 47.0607H154.712V60.5607C154.712 60.9392 154.586 61.1916 154.081 61.1916H152.189C151.811 61.1916 151.559 61.0654 151.559 60.5607V47.0607Z" fill="#333366"/>
<path d="M166.063 45.042C166.189 44.7897 166.315 44.5374 166.694 44.5374H168.586C168.964 44.5374 169.216 44.6635 169.216 44.9159L175.144 60.4346C175.27 60.8131 175.144 61.0654 174.766 61.0654H172.622C172.117 61.0654 171.991 60.8131 171.865 60.4346L170.604 56.9018H164.55L163.288 60.4346C163.162 60.6869 163.036 60.9392 162.658 60.9392H160.64C160.261 60.9392 160.135 60.6869 160.261 60.3084L166.063 45.042ZM169.721 54.757L168.081 49.7103C167.829 49.0794 167.703 48.5747 167.577 48.1962C167.45 48.5747 167.324 49.0794 167.072 49.8364L165.432 54.8831H169.721V54.757Z" fill="#333366"/>
<path d="M190.153 60.5607C190.153 60.9392 190.027 61.1916 189.522 61.1916H187.631C187.252 61.1916 187 61.0654 187 60.5607V53.8738H180.189V60.5607C180.189 60.9392 179.937 61.1916 179.559 61.1916H177.667C177.288 61.1916 177.036 61.0654 177.036 60.5607V45.1682C177.036 44.7897 177.288 44.5374 177.667 44.5374H179.559C179.937 44.5374 180.189 44.6635 180.189 45.1682V51.4766H187V45.1682C187 44.7897 187.252 44.5374 187.631 44.5374H189.522C189.901 44.5374 190.153 44.6635 190.153 45.1682V60.5607Z" fill="#333366"/>
<path d="M200.117 61.4439C195.577 61.4439 192.928 58.1635 192.928 52.8645C192.928 47.6916 195.829 44.1589 200.369 44.1589C205.162 44.1589 207.559 47.6916 207.559 52.6121C207.559 58.1635 204.405 61.4439 200.117 61.4439ZM200.243 46.9346C197.847 46.9346 196.207 49.2056 196.207 52.8645C196.207 56.9019 197.721 58.7944 200.243 58.7944C202.64 58.7944 204.279 56.6495 204.279 52.8645C204.153 48.8271 202.766 46.9346 200.243 46.9346Z" fill="#333366"/>
<path d="M215.378 61.1916H210.838C210.333 61.1916 210.207 60.9392 210.207 60.4346V45.1682C210.207 44.6635 210.459 44.5374 210.964 44.5374H214.495C218.405 44.5374 220.55 45.6729 220.55 48.5747C220.55 50.2149 219.541 51.7289 217.901 52.1074C220.171 52.2336 221.937 53.8738 221.937 56.271C221.937 60.1822 218.784 61.1916 215.378 61.1916ZM214.622 46.9346H213.36V51.3504H214.622C216.387 51.3504 217.649 50.8458 217.649 48.9532C217.523 47.4392 216.387 46.9346 214.622 46.9346ZM217.523 54C216.766 53.6215 216.009 53.6215 215 53.6215C214.874 53.6215 213.613 53.6215 213.36 53.6215V58.7944H215.126C216.009 58.7944 216.766 58.6682 217.396 58.542C218.279 58.1635 218.784 57.4065 218.784 56.271C218.784 55.1355 218.279 54.3785 217.523 54Z" fill="#333366"/>
<path d="M229 45.042C229.126 44.7897 229.252 44.5374 229.631 44.5374H231.522C231.901 44.5374 232.153 44.6635 232.153 44.9159L238.081 60.4346C238.207 60.8131 238.081 61.0654 237.703 61.0654H235.559C235.054 61.0654 234.928 60.8131 234.802 60.4346L233.541 56.9018H227.486L226.225 60.4346C226.099 60.6869 225.973 60.9392 225.595 60.9392H223.45C223.072 60.9392 222.946 60.6869 223.072 60.3084L229 45.042ZM232.658 54.757L231.018 49.7103C230.766 49.0794 230.64 48.5747 230.513 48.1962C230.387 48.5747 230.261 49.0794 230.009 49.8364L228.369 54.8831H232.658V54.757Z" fill="#333366"/>
<path d="M247.036 54.8831C245.396 54.8831 244.892 55.3878 244.135 57.028L242.495 60.5607C242.369 60.8131 242.117 61.1916 241.486 61.1916H239.468C238.964 61.1916 238.838 60.8131 239.09 60.4346L241.234 56.1448C241.739 55.2617 242.117 54.6308 242.874 54.2523C241.36 53.8738 239.973 52.3598 239.973 49.8364C239.973 46.0514 242.748 44.5374 246.279 44.5374H250.568C250.946 44.5374 251.198 44.6635 251.198 45.1682V60.4346C251.198 60.8131 251.072 61.0654 250.568 61.0654H248.676C248.171 61.0654 248.045 60.9392 248.045 60.4346V54.757H247.036V54.8831ZM248.171 46.9346H246.153C244.261 46.9346 243 47.6916 243 49.5841C243 51.6028 244.009 52.486 246.027 52.486H248.171V46.9346Z" fill="#333366"/>
<path d="M130.495 82.6402C130.874 82.6402 131.126 82.7663 131.126 83.271V89.2009C131.126 89.5794 131 89.8318 130.495 89.8318H128.856C128.351 89.8318 128.225 89.7056 128.225 89.2009V85.1635H118.387V89.2009C118.387 89.5794 118.261 89.8318 117.757 89.8318H116.117C115.613 89.8318 115.486 89.7056 115.486 89.2009V83.271C115.486 82.7663 115.739 82.6402 116.117 82.6402H116.495C118.766 79.486 119.649 75.7009 119.649 72.2944V69.2663C119.649 68.7617 119.901 68.6355 120.279 68.6355H128.856C129.234 68.6355 129.486 68.7617 129.486 69.2663V82.6402H130.495ZM122.928 72.042C122.928 75.5748 122.171 79.3598 120.027 82.6402H126.333V71.0327H122.802V72.042H122.928Z" fill="#333366"/>
<path d="M140.333 85.4159C135.793 85.4159 133.144 82.1355 133.144 76.8365C133.144 71.6636 136.045 68.1309 140.586 68.1309C145.378 68.1309 147.775 71.6636 147.775 76.5841C147.649 82.1355 144.622 85.4159 140.333 85.4159ZM140.333 70.9066C137.937 70.9066 136.297 73.1776 136.297 76.8365C136.297 80.8739 137.811 82.8925 140.333 82.8925C142.73 82.8925 144.369 80.7477 144.369 76.8365C144.369 72.7991 142.982 70.9066 140.333 70.9066Z" fill="#333366"/>
<path d="M155.468 72.042C155.468 79.1075 154.586 84.2804 149.919 85.2897C149.541 85.4159 149.288 85.2897 149.162 84.9112L148.784 83.3972C148.658 83.0187 148.784 82.7663 149.162 82.6402C152.189 81.757 152.441 77.0888 152.441 72.4205V69.2663C152.441 68.7617 152.694 68.6355 153.072 68.6355H162.153C162.532 68.6355 162.784 68.7617 162.784 69.2663V84.5327C162.784 84.9112 162.658 85.1635 162.153 85.1635H160.261C159.757 85.1635 159.631 85.0374 159.631 84.5327V71.0327H155.342V72.042H155.468Z" fill="#333366"/>
<path d="M176.658 70.6542V69.2663C176.658 68.7617 176.784 68.6355 177.288 68.6355H179.18C179.559 68.6355 179.811 68.7617 179.811 69.2663V84.6589C179.811 85.0374 179.685 85.2897 179.18 85.2897H177.288C176.784 85.2897 176.658 85.1635 176.658 84.6589V74.6916L169.468 83.0187V84.6589C169.468 85.0374 169.342 85.2897 168.838 85.2897H166.946C166.441 85.2897 166.315 85.1635 166.315 84.6589V69.2663C166.315 68.7617 166.441 68.6355 166.946 68.6355H168.838C169.216 68.6355 169.468 68.7617 169.468 69.2663V79.2336L176.658 70.6542Z" fill="#333366"/>
<path d="M196.333 84.5327C196.333 84.9112 196.207 85.1635 195.703 85.1635H193.811C193.432 85.1635 193.18 85.0374 193.18 84.5327V77.8458H186.369V84.5327C186.369 84.9112 186.117 85.1635 185.739 85.1635H183.847C183.468 85.1635 183.216 85.0374 183.216 84.5327V69.1402C183.216 68.7617 183.468 68.5093 183.847 68.5093H185.739C186.117 68.5093 186.369 68.6355 186.369 69.1402V75.4486H193.18V69.1402C193.18 68.7617 193.432 68.5093 193.811 68.5093H195.703C196.081 68.5093 196.333 68.6355 196.333 69.1402V84.5327Z" fill="#333366"/>
<path d="M204.027 69.014C204.153 68.7617 204.279 68.5093 204.658 68.5093H206.55C206.928 68.5093 207.18 68.6355 207.18 68.8878L213.108 84.4065C213.234 84.785 213.108 85.0374 212.73 85.0374H210.586C210.081 85.0374 209.955 84.785 209.829 84.4065L208.568 80.8738H202.513L201.252 84.4065C201.126 84.6589 201 84.9112 200.622 84.9112H198.604C198.225 84.9112 198.099 84.6589 198.225 84.2804L204.027 69.014ZM207.811 78.729L206.171 73.6822C205.919 73.0514 205.793 72.5467 205.667 72.1682C205.541 72.5467 205.414 73.0514 205.162 73.8084L203.523 78.8551H207.811V78.729Z" fill="#333366"/>
<path d="M117.883 105.35C115.613 105.35 114.351 103.71 114.351 100.935C114.351 98.1589 115.865 96.3925 118.009 96.3925C120.279 96.3925 121.541 98.1589 121.541 100.808C121.541 103.71 120.027 105.35 117.883 105.35ZM118.009 97.4019C116.622 97.4019 115.613 98.7897 115.613 100.935C115.613 103.079 116.495 104.467 118.009 104.467C119.396 104.467 120.405 103.079 120.405 100.935C120.405 98.6635 119.523 97.4019 118.009 97.4019Z" fill="#333366"/>
<path d="M127.342 100.051C127.342 100.178 127.216 100.178 127.09 100.178C126.712 100.051 126.333 99.9252 125.829 99.9252C124.694 99.9252 123.937 100.808 123.937 102.196C123.937 103.458 124.441 104.593 125.829 104.593C126.333 104.593 126.712 104.467 127.216 104.341C127.342 104.341 127.468 104.341 127.468 104.467L127.595 104.846C127.595 104.972 127.595 105.098 127.468 105.098C126.964 105.35 126.333 105.477 125.829 105.477C123.811 105.477 122.928 104.215 122.928 102.322C122.928 100.43 124.063 99.1682 125.955 99.1682C126.586 99.1682 127.09 99.2944 127.595 99.5467C127.721 99.5467 127.721 99.6729 127.721 99.7991L127.342 100.051Z" fill="#333366"/>
<path d="M131.126 105.35C129.234 105.35 128.351 103.963 128.351 102.196C128.351 100.43 129.36 99.0421 131.252 99.0421C133.144 99.0421 134.027 100.43 134.027 102.196C134.027 103.963 133.018 105.35 131.126 105.35ZM131.126 99.7991C129.739 99.7991 129.36 100.935 129.36 102.07C129.36 103.206 129.739 104.467 131.126 104.467C132.387 104.467 132.892 103.332 132.892 102.196C132.892 101.061 132.514 99.7991 131.126 99.7991Z" fill="#333366"/>
<path d="M138.441 99.2944C139.829 99.2944 140.838 100.304 140.838 102.196C140.838 104.089 139.829 105.35 138.063 105.35C135.667 105.35 135.288 103.206 135.288 101.313C135.288 99.6729 135.414 98.4112 136.171 97.5281C136.676 96.8972 137.559 96.5187 138.946 96.2664L140.207 96.1402C140.333 96.1402 140.333 96.1402 140.333 96.2664V96.8972C140.333 97.0234 140.333 97.0234 140.207 97.0234L139.072 97.1495C137.937 97.2757 137.18 97.6542 136.802 98.1589C136.55 98.5374 136.423 99.1682 136.423 99.9252C136.802 99.6729 137.559 99.2944 138.441 99.2944ZM136.297 101.187C136.297 103.458 136.802 104.467 137.937 104.467C139.072 104.467 139.577 103.332 139.577 102.196C139.577 101.313 139.198 100.051 137.937 100.051C137.18 100.051 136.55 100.43 136.171 100.935V101.187H136.297Z" fill="#333366"/>
<path d="M146.135 104.341C145.883 104.846 145 105.35 144.243 105.35C142.477 105.35 141.721 103.836 141.721 102.322C141.721 100.178 142.982 99.0421 144.369 99.0421C145 99.0421 145.631 99.2944 146.009 99.7991V99.4206C146.009 99.2944 146.135 99.1682 146.261 99.1682H146.766C146.892 99.1682 147.018 99.2944 147.018 99.4206V103.836C147.018 104.341 147.018 104.467 147.27 104.467C147.396 104.467 147.523 104.467 147.523 104.593V104.972C147.523 105.098 147.396 105.224 147.27 105.224H146.766C146.513 105.224 146.261 104.846 146.135 104.341ZM146.135 100.808C145.883 100.178 145.252 99.9252 144.622 99.9252C143.613 99.9252 142.982 100.808 142.982 102.322C142.982 103.71 143.613 104.593 144.495 104.593C145.252 104.593 145.883 103.963 146.135 103.332V100.808Z" fill="#333366"/>
<path d="M151.685 102.701C151.054 102.701 150.802 102.953 150.423 103.584L149.667 105.098C149.667 105.224 149.541 105.224 149.414 105.224H148.658C148.532 105.224 148.405 105.098 148.532 104.972L149.541 103.206C149.667 102.953 149.919 102.575 150.171 102.449C149.414 102.322 148.91 101.818 148.91 100.935C148.91 100.304 149.162 99.7991 149.541 99.5467C149.919 99.1682 150.676 99.1682 151.559 99.1682H153.324C153.45 99.1682 153.577 99.1682 153.577 99.4206V104.972C153.577 105.224 153.45 105.224 153.324 105.224H152.82C152.694 105.224 152.568 105.224 152.568 104.972V102.701H151.685ZM152.568 99.9252H151.559C150.676 99.9252 150.171 100.178 150.171 100.935C150.171 101.692 150.802 101.944 151.559 101.944H152.568V99.9252Z" fill="#333366"/>
<path d="M158.748 102.449C158.622 102.449 158.622 102.449 158.622 102.322V101.818C158.622 101.692 158.622 101.692 158.748 101.692H161.649C161.523 100.682 160.892 99.9252 159.631 99.9252C159.126 99.9252 158.622 100.051 158.243 100.178C158.117 100.178 157.991 100.178 157.991 100.051L157.865 99.4206C157.865 99.2944 157.865 99.2944 157.991 99.1682C158.495 99.0421 159 98.9159 159.631 98.9159C161.649 98.9159 162.784 100.178 162.784 102.07C162.784 103.963 161.649 105.35 159.505 105.35C158.874 105.35 158.369 105.224 157.865 105.098C157.739 105.098 157.739 104.972 157.739 104.846L157.865 104.341C157.865 104.215 157.991 104.215 158.117 104.215C158.369 104.341 159 104.467 159.505 104.467C160.892 104.467 161.649 103.836 161.649 102.449H158.748Z" fill="#333366"/>
<path d="M165.811 101.818C166.694 101.818 167.072 101.565 167.198 100.935L167.45 100.304C167.703 99.6729 167.829 99.1682 168.838 99.1682H168.964C169.09 99.1682 169.09 99.1682 169.09 99.2944V99.7991C169.09 99.9252 169.09 99.9252 168.964 99.9252H168.838C168.459 99.9252 168.333 100.178 168.207 100.556L167.955 101.187C167.829 101.692 167.45 102.07 167.072 102.196C167.45 102.322 167.703 102.575 167.955 102.953L169.09 104.846C169.216 104.972 169.09 105.098 168.964 105.098H168.333C168.207 105.098 168.081 104.972 167.955 104.846L166.946 103.206C166.568 102.575 166.315 102.449 165.559 102.449H165.054V104.846C165.054 105.098 164.928 105.098 164.802 105.098H164.297C164.171 105.098 164.045 105.098 164.045 104.846V99.2944C164.045 99.1682 164.171 99.0421 164.297 99.0421H164.802C164.928 99.0421 165.054 99.0421 165.054 99.2944V101.692H165.811V101.818Z" fill="#333366"/>
<path d="M172.874 105.35C170.982 105.35 170.099 103.963 170.099 102.196C170.099 100.43 171.108 99.0421 173 99.0421C174.892 99.0421 175.775 100.43 175.775 102.196C175.775 103.963 174.766 105.35 172.874 105.35ZM173 99.7991C171.613 99.7991 171.234 100.935 171.234 102.07C171.234 103.206 171.613 104.467 173 104.467C174.261 104.467 174.766 103.332 174.766 102.196C174.766 101.061 174.261 99.7991 173 99.7991Z" fill="#333366"/>
<path d="M181.198 99.4206C181.198 99.2944 181.324 99.1682 181.45 99.1682H182.081C182.207 99.1682 182.333 99.1682 182.333 99.4206V104.972C182.333 105.224 182.207 105.224 182.081 105.224H181.45C181.324 105.224 181.198 105.224 181.198 104.972V102.449H178.297V104.972C178.297 105.224 178.171 105.224 178.045 105.224H177.541C177.414 105.224 177.288 105.224 177.288 104.972V99.4206C177.288 99.2944 177.414 99.1682 177.541 99.1682H178.045C178.171 99.1682 178.297 99.1682 178.297 99.4206V101.692H181.198V99.4206Z" fill="#333366"/>
<path d="M186.369 105.35C184.477 105.35 183.595 103.963 183.595 102.196C183.595 100.43 184.604 99.0421 186.495 99.0421C188.387 99.0421 189.27 100.43 189.27 102.196C189.396 103.963 188.261 105.35 186.369 105.35ZM186.495 99.7991C185.108 99.7991 184.73 100.935 184.73 102.07C184.73 103.206 185.108 104.467 186.495 104.467C187.757 104.467 188.261 103.332 188.261 102.196C188.261 101.061 187.757 99.7991 186.495 99.7991Z" fill="#333366"/>
<path d="M193.937 104.089L195.703 99.2944C195.703 99.1682 195.829 99.0421 195.955 99.0421H196.712C196.838 99.0421 196.964 99.0421 196.964 99.2944L197.216 104.846C197.216 104.972 197.09 105.098 196.964 105.098H196.459C196.333 105.098 196.207 105.098 196.207 104.846L196.081 100.304L194.441 104.846C194.441 104.972 194.315 105.098 194.189 105.098H193.559C193.432 105.098 193.306 105.098 193.306 104.846L191.667 100.304L191.541 104.846C191.541 104.972 191.414 105.098 191.288 105.098H190.784C190.658 105.098 190.532 105.098 190.532 104.846L190.784 99.2944C190.784 99.1682 190.91 99.0421 191.036 99.0421H191.919C192.045 99.0421 192.171 99.0421 192.171 99.2944L193.937 104.089Z" fill="#333366"/>
<path d="M202.892 99.9252V99.4206C202.892 99.2944 203.018 99.1682 203.144 99.1682H203.649C203.775 99.1682 203.901 99.1682 203.901 99.4206V104.972C203.901 105.224 203.775 105.224 203.649 105.224H203.144C203.018 105.224 202.892 105.224 202.892 104.972V101.187L199.991 104.341V104.972C199.991 105.224 199.865 105.224 199.739 105.224H199.234C199.108 105.224 198.982 105.224 198.982 104.972V99.4206C198.982 99.2944 199.108 99.1682 199.234 99.1682H199.739C199.865 99.1682 199.991 99.1682 199.991 99.4206V103.206L202.892 99.9252Z" fill="#333366"/>
<path d="M208.946 99.4206C208.946 99.2944 209.072 99.1682 209.198 99.1682H209.829C209.955 99.1682 210.081 99.1682 210.081 99.4206V104.972C210.081 105.224 209.955 105.224 209.829 105.224H209.198C209.072 105.224 208.946 105.224 208.946 104.972V103.079C208.568 103.206 207.811 103.458 207.18 103.458C205.667 103.458 205.162 102.575 205.162 101.313V99.5467C205.162 99.4205 205.288 99.2944 205.414 99.2944H205.919C206.045 99.2944 206.171 99.2944 206.171 99.5467V101.187C206.171 102.07 206.297 102.575 207.432 102.575C207.937 102.575 208.568 102.449 208.82 102.322V99.4206H208.946Z" fill="#333366"/>
<path d="M212.477 102.322C212.477 103.458 213.108 104.467 214.369 104.467C214.874 104.467 215.505 104.341 215.883 104.215C216.009 104.215 216.135 104.215 216.135 104.341L216.261 104.72C216.261 104.846 216.261 104.972 216.135 104.972C215.631 105.224 214.748 105.35 214.117 105.35C212.225 105.35 211.216 104.089 211.216 102.196C211.216 100.304 212.351 99.0421 214.117 99.0421C215.757 99.0421 216.64 100.304 216.64 101.692V102.07C216.64 102.322 216.64 102.449 216.261 102.449H212.477V102.322ZM215.757 101.565V101.439C215.757 100.556 215.252 99.9252 214.243 99.9252C213.234 99.9252 212.604 100.682 212.604 101.692H215.757V101.565Z" fill="#333366"/>
<path d="M222.315 100.051C222.315 100.178 222.189 100.178 222.063 100.178C221.685 100.051 221.306 99.9252 220.802 99.9252C219.541 99.9252 218.91 100.808 218.91 102.196C218.91 103.458 219.414 104.593 220.802 104.593C221.306 104.593 221.685 104.467 222.189 104.341C222.315 104.341 222.441 104.341 222.441 104.467L222.568 104.846C222.568 104.972 222.568 105.098 222.441 105.098C221.937 105.35 221.306 105.477 220.802 105.477C218.784 105.477 217.901 104.215 217.901 102.322C217.901 100.43 219.036 99.1682 220.928 99.1682C221.559 99.1682 222.063 99.2944 222.568 99.5467C222.694 99.5467 222.694 99.6729 222.694 99.7991L222.315 100.051Z" fill="#333366"/>
<path d="M225.216 101.818C226.099 101.818 226.477 101.565 226.604 100.935L226.856 100.304C227.108 99.6729 227.234 99.1682 228.243 99.1682H228.369C228.495 99.1682 228.495 99.1682 228.495 99.2944V99.7991C228.495 99.9252 228.495 99.9252 228.243 99.9252H228.117C227.739 99.9252 227.739 100.178 227.486 100.556L227.234 101.187C227.108 101.692 226.73 102.07 226.351 102.196C226.73 102.322 226.982 102.575 227.234 102.953L228.369 104.846C228.495 104.972 228.495 105.098 228.243 105.098H227.613C227.486 105.098 227.36 104.972 227.234 104.846L226.351 103.206C225.973 102.575 225.721 102.449 224.964 102.449H224.459V104.846C224.459 105.098 224.333 105.098 224.207 105.098H223.577C223.45 105.098 223.324 105.098 223.324 104.846V99.2944C223.324 99.1682 223.45 99.0421 223.577 99.0421H224.207C224.333 99.0421 224.459 99.0421 224.459 99.2944V101.692H225.216V101.818Z" fill="#333366"/>
<path d="M233.919 104.341C233.667 104.846 232.784 105.35 232.027 105.35C230.261 105.35 229.505 103.836 229.505 102.322C229.505 100.178 230.766 99.0421 232.153 99.0421C232.784 99.0421 233.414 99.2944 233.793 99.7991V99.4206C233.793 99.2944 233.919 99.1682 234.045 99.1682H234.55C234.676 99.1682 234.802 99.2944 234.802 99.4206V103.836C234.802 104.341 234.802 104.467 235.054 104.467C235.18 104.467 235.306 104.467 235.306 104.593V104.972C235.306 105.098 235.18 105.224 235.054 105.224H234.802C234.171 105.224 233.919 104.846 233.919 104.341ZM233.919 100.808C233.667 100.178 233.036 99.9252 232.405 99.9252C231.396 99.9252 230.766 100.808 230.766 102.322C230.766 103.71 231.396 104.593 232.279 104.593C233.036 104.593 233.667 103.963 233.919 103.332V100.808Z" fill="#333366"/>
<path d="M239.468 102.701C238.838 102.701 238.586 102.953 238.207 103.584L237.45 105.098C237.324 105.224 237.324 105.35 237.072 105.35H236.315C236.189 105.35 236.063 105.224 236.189 105.098L237.198 103.332C237.324 103.079 237.577 102.701 237.829 102.575C237.072 102.449 236.568 101.944 236.568 101.061C236.568 100.43 236.82 99.9252 237.198 99.6729C237.577 99.2944 238.333 99.2944 239.216 99.2944H240.982C241.108 99.2944 241.234 99.2944 241.234 99.5467V105.098C241.234 105.35 241.108 105.35 240.982 105.35H240.351C240.225 105.35 240.099 105.35 240.099 105.098V102.701H239.468ZM240.225 99.9252H239.216C238.333 99.9252 237.829 100.178 237.829 100.935C237.829 101.692 238.459 101.944 239.216 101.944H240.225V99.9252Z" fill="#333366"/>
<path d="M247.414 105.35C246.658 105.35 246.153 105.224 245.649 104.972C245.523 104.972 245.523 104.846 245.523 104.72L245.649 104.341C245.649 104.215 245.775 104.215 245.901 104.215C246.279 104.341 246.91 104.467 247.414 104.467C248.297 104.467 248.928 104.089 248.928 103.332C248.928 102.575 248.171 102.196 247.288 102.196H246.658C246.532 102.196 246.532 102.196 246.532 102.07V101.565C246.532 101.439 246.532 101.439 246.658 101.439H247.288C248.171 101.439 248.676 101.187 248.676 100.43C248.676 99.7991 248.171 99.5468 247.414 99.5468C247.036 99.5468 246.532 99.6729 246.027 99.7991C245.901 99.7991 245.775 99.7991 245.775 99.6729L245.649 99.2944C245.649 99.1682 245.649 99.0421 245.775 99.0421C246.279 98.7897 246.91 98.6636 247.667 98.6636C248.928 98.6636 249.937 99.1682 249.937 100.304C249.937 100.935 249.685 101.439 248.928 101.692C249.685 101.818 250.189 102.449 250.189 103.206C250.063 104.72 249.054 105.35 247.414 105.35Z" fill="#333366"/>
<path d="M253.847 105.35C251.955 105.35 251.072 103.963 251.072 102.196C251.072 100.43 252.081 99.0421 253.973 99.0421C255.865 99.0421 256.748 100.43 256.748 102.196C256.874 103.963 255.739 105.35 253.847 105.35ZM253.973 99.7991C252.586 99.7991 252.207 100.935 252.207 102.07C252.207 103.206 252.586 104.467 253.973 104.467C255.234 104.467 255.739 103.332 255.739 102.196C255.739 101.061 255.234 99.7991 253.973 99.7991Z" fill="#333366"/>
<path d="M262.171 99.4206C262.171 99.2944 262.297 99.1682 262.423 99.1682H262.928C263.054 99.1682 263.18 99.1682 263.18 99.4206V104.972C263.18 105.224 263.054 105.224 262.928 105.224H262.423C262.297 105.224 262.171 105.224 262.171 104.972V102.449H259.27V104.972C259.27 105.224 259.144 105.224 259.018 105.224H258.387C258.261 105.224 258.135 105.224 258.135 104.972V99.4206C258.135 99.2944 258.261 99.1682 258.387 99.1682H259.018C259.144 99.1682 259.27 99.1682 259.27 99.4206V101.692H262.171V99.4206Z" fill="#333366"/>
<path d="M268.982 104.341C268.73 104.846 267.847 105.35 267.09 105.35C265.324 105.35 264.568 103.836 264.568 102.322C264.568 100.178 265.829 99.0421 267.216 99.0421C267.847 99.0421 268.477 99.2944 268.856 99.7991V99.4206C268.856 99.2944 268.982 99.1682 269.108 99.1682H269.613C269.739 99.1682 269.865 99.2944 269.865 99.4206V103.836C269.865 104.341 269.865 104.467 270.117 104.467C270.243 104.467 270.369 104.467 270.369 104.593V104.972C270.369 105.098 270.369 105.224 270.117 105.224H269.613C269.234 105.224 268.982 104.846 268.982 104.341ZM268.982 100.808C268.73 100.178 268.099 99.9252 267.468 99.9252C266.459 99.9252 265.829 100.808 265.829 102.322C265.829 103.71 266.459 104.593 267.342 104.593C268.099 104.593 268.73 103.963 268.982 103.332V100.808Z" fill="#333366"/>
<defs>
<filter id="filter0_d_107_685" x="-3" y="0" width="1447" height="143" filterUnits="userSpaceOnUse" color-interpolation-filters="sRGB">
<feFlood flood-opacity="0" result="BackgroundImageFix"/>
<feColorMatrix in="SourceAlpha" type="matrix" values="0 0 0 0 0 0 0 0 0 0 0 0 0 0 0 0 0 0 127 0" result="hardAlpha"/>
<feOffset dy="4"/>
<feGaussianBlur stdDeviation="2"/>
<feComposite in2="hardAlpha" operator="out"/>
<feColorMatrix type="matrix" values="0 0 0 0 0 0 0 0 0 0 0 0 0 0 0 0 0 0 0.25 0"/>
<feBlend mode="normal" in2="BackgroundImageFix" result="effect1_dropShadow_107_685"/>
<feBlend mode="normal" in="SourceGraphic" in2="effect1_dropShadow_107_685" result="shape"/>
</filter>
<linearGradient id="paint0_linear_107_685" x1="1317" y1="39" x2="1317" y2="95" gradientUnits="userSpaceOnUse">
<stop stop-color="#F5D542"/>
<stop offset="1" stop-color="#DA7D32"/>
</linearGradient>
</defs>
</svg>
