<svg width="242" height="168" viewBox="0 0 242 168" fill="none" xmlns="http://www.w3.org/2000/svg">
<path d="M121 167.852C187.826 167.852 242 164.821 242 161.081C242 157.342 187.826 154.31 121 154.31C54.1735 154.31 0 157.342 0 161.081C0 164.821 54.1735 167.852 121 167.852Z" fill="#F5F5F5"/>
<path d="M131.678 155.554C131.482 155.554 131.293 155.489 131.142 155.37C130.99 155.251 130.887 155.086 130.848 154.902L118.99 98.9396H98.3402L86.4829 154.902C86.4264 155.102 86.2929 155.273 86.1094 155.381C85.9259 155.49 85.7063 155.527 85.495 155.486C85.2838 155.445 85.0968 155.329 84.9719 155.16C84.8471 154.992 84.7938 154.784 84.8229 154.579L96.8174 97.9647C96.8573 97.7815 96.9614 97.6169 97.1124 97.4983C97.2634 97.3797 97.4522 97.3142 97.6474 97.3127H119.677C119.872 97.3131 120.062 97.3782 120.213 97.497C120.364 97.6158 120.468 97.781 120.507 97.9647L132.508 154.579C132.552 154.79 132.507 155.009 132.383 155.189C132.259 155.368 132.066 155.493 131.846 155.536L131.678 155.554Z" fill="#82A1E4"/>
<path d="M98.5336 155.554C98.3384 155.553 98.1496 155.487 97.9986 155.369C97.8476 155.25 97.7435 155.086 97.7036 154.902L85.8464 98.9396H65.1961L53.3388 154.902C53.3232 155.013 53.2841 155.119 53.224 155.214C53.1638 155.309 53.084 155.391 52.9893 155.456C52.8947 155.52 52.7872 155.565 52.6737 155.588C52.5601 155.612 52.4428 155.612 52.329 155.59C52.2152 155.568 52.1074 155.523 52.0122 155.46C51.917 155.396 51.8364 155.314 51.7755 155.22C51.7145 155.125 51.6745 155.019 51.6579 154.909C51.6413 154.799 51.6484 154.687 51.6788 154.579L63.6796 97.9647C63.7184 97.781 63.8222 97.6158 63.9734 97.497C64.1247 97.3782 64.3141 97.3131 64.5096 97.3127H86.5391C86.7339 97.3133 86.9224 97.3787 87.0726 97.4975C87.2228 97.6164 87.3254 97.7815 87.3629 97.9647L99.3636 154.579C99.4078 154.79 99.363 155.009 99.2391 155.189C99.1151 155.368 98.922 155.493 98.7021 155.536L98.5336 155.554Z" fill="#82A1E4"/>
<path d="M103.17 98.1321H65.2273C61.7445 98.1328 58.4004 96.8246 55.9128 94.4884C53.4252 92.1522 51.9924 88.9742 51.9222 85.6368L50.5118 30.368C50.4852 29.1326 50.7161 27.9045 51.1909 26.7557C51.6656 25.6069 52.3747 24.5604 53.2767 23.6775C54.1786 22.7947 55.2553 22.0931 56.4436 21.614C57.632 21.1349 58.9081 20.8879 60.1973 20.8873H83.9867C86.3675 20.8888 88.6645 21.7296 90.4403 23.2496C92.216 24.7696 93.3463 26.8626 93.616 29.1298L103.17 98.1321Z" fill="#82A1E4"/>
<path d="M82.4764 91.1338H119.608C120.987 91.1338 122.309 91.6587 123.284 92.5932C124.259 93.5276 124.807 94.7949 124.807 96.1164V96.2898C124.807 96.7658 124.61 97.2222 124.258 97.5587C123.907 97.8952 123.431 98.0843 122.935 98.0843H82.4764V91.1338Z" fill="#82A1E4"/>
<g opacity="0.3">
<path d="M131.678 155.554C131.482 155.554 131.293 155.489 131.142 155.37C130.99 155.251 130.886 155.086 130.848 154.902L118.99 98.9396H98.3401L86.4829 154.902C86.4264 155.102 86.2928 155.273 86.1094 155.381C85.9259 155.49 85.7062 155.527 85.495 155.486C85.2837 155.445 85.0967 155.329 84.9719 155.16C84.8471 154.992 84.7938 154.784 84.8229 154.579L96.8174 97.9647C96.8573 97.7815 96.9614 97.6169 97.1124 97.4983C97.2634 97.3797 97.4522 97.3142 97.6474 97.3127H119.677C119.872 97.3131 120.062 97.3782 120.213 97.497C120.364 97.6158 120.468 97.781 120.507 97.9647L132.508 154.579C132.552 154.79 132.507 155.009 132.383 155.189C132.259 155.368 132.066 155.493 131.846 155.536L131.678 155.554Z" fill="black"/>
<path d="M98.5336 155.554C98.3384 155.553 98.1496 155.487 97.9986 155.369C97.8476 155.25 97.7435 155.086 97.7036 154.902L85.8464 98.9396H65.196L53.3388 154.902C53.3231 155.013 53.284 155.119 53.2239 155.214C53.1638 155.309 53.084 155.391 52.9893 155.456C52.8947 155.52 52.7872 155.565 52.6736 155.588C52.5601 155.612 52.4428 155.612 52.329 155.59C52.2152 155.568 52.1074 155.523 52.0122 155.46C51.9169 155.396 51.8364 155.314 51.7754 155.22C51.7145 155.125 51.6745 155.019 51.6578 154.909C51.6412 154.799 51.6484 154.687 51.6788 154.579L63.6796 97.9647C63.7184 97.781 63.8222 97.6158 63.9734 97.497C64.1246 97.3782 64.314 97.3131 64.5096 97.3127H86.5391C86.7338 97.3133 86.9224 97.3787 87.0726 97.4975C87.2227 97.6164 87.3253 97.7815 87.3628 97.9647L99.3636 154.579C99.4078 154.79 99.363 155.009 99.239 155.189C99.1151 155.368 98.922 155.493 98.7021 155.536L98.5336 155.554Z" fill="black"/>
<path d="M103.17 98.1321H65.2273C61.7445 98.1328 58.4004 96.8246 55.9128 94.4884C53.4252 92.1522 51.9924 88.9742 51.9222 85.6368L50.5118 30.368C50.4852 29.1326 50.7161 27.9045 51.1909 26.7557C51.6656 25.6069 52.3747 24.5604 53.2767 23.6775C54.1786 22.7947 55.2553 22.0931 56.4436 21.614C57.632 21.1349 58.9081 20.8879 60.1973 20.8873H83.9867C86.3675 20.8888 88.6645 21.7296 90.4403 23.2496C92.216 24.7696 93.3463 26.8626 93.616 29.1298L103.17 98.1321Z" fill="black"/>
<path d="M82.4764 91.1338H119.608C120.987 91.1338 122.309 91.6587 123.284 92.5932C124.259 93.5276 124.807 94.7949 124.807 96.1164V96.2898C124.807 96.7658 124.609 97.2222 124.258 97.5587C123.907 97.8952 123.431 98.0843 122.935 98.0843H82.4764V91.1338Z" fill="black"/>
</g>
<path d="M92.6112 17.8368C92.6112 17.8368 97.9158 24.4762 94.4834 37.6953C91.0511 50.9144 73.3401 43.7366 72.2667 31.8215C71.0186 17.777 87.4689 27.461 90.3646 14.9716L92.6112 17.8368Z" fill="#263238"/>
<path d="M88.7608 13.895C86.458 15.4502 85.5468 17.7112 88.093 19.9243C90.6392 22.1375 94.2712 22.0657 95.3696 21.1565C96.468 20.2473 96.2495 15.6296 96.2495 15.6296L88.7608 13.895Z" fill="#82A1E4"/>
<path opacity="0.8" d="M88.7608 13.895C86.458 15.4502 85.5468 17.7112 88.093 19.9243C90.6392 22.1375 94.2712 22.0657 95.3696 21.1565C96.468 20.2473 96.2495 15.6296 96.2495 15.6296L88.7608 13.895Z" fill="white"/>
<path d="M117.842 43.3179C117.905 43.587 118.011 44.0057 118.111 44.3587L118.41 45.4832C118.622 46.2368 118.853 46.9905 119.097 47.7442C119.558 49.2635 120.07 50.7768 120.607 52.2901C121.143 53.8034 121.693 55.2808 122.292 56.8121C122.585 57.5598 122.878 58.3134 123.19 59.0611L123.552 59.9583C123.625 60.1118 123.719 60.2548 123.833 60.383C124.722 61.2442 125.804 61.899 126.997 62.2971C128.455 62.8593 129.957 63.3074 131.49 63.637C133.076 63.9899 134.704 64.283 136.352 64.5282C137.999 64.7734 139.691 64.9708 141.313 65.1263L141.369 68.3444C137.809 68.6973 134.221 68.6973 130.66 68.3444C128.8 68.1605 126.96 67.8182 125.162 67.3215C124.189 67.0399 123.241 66.6818 122.329 66.2509C121.279 65.7617 120.318 65.1134 119.483 64.3308C118.999 63.8685 118.579 63.3477 118.235 62.7816C118.142 62.638 118.061 62.4765 117.973 62.327L117.811 62.004L117.524 61.4059C117.137 60.6462 116.75 59.8866 116.394 59.115C115.67 57.5717 114.965 56.0165 114.335 54.4315C113.705 52.8464 113.087 51.2493 112.563 49.6463C112.307 48.8208 112.057 48.0014 111.826 47.158L111.483 45.8959C111.383 45.4413 111.29 45.0645 111.19 44.5261L117.842 43.3179Z" fill="#E58A7B"/>
<path d="M115.72 36.5229C118.398 37.1749 120.264 47.7262 120.264 47.7262L112.893 52.5114C112.893 52.5114 105.823 41.8644 107.901 39.0471C110.029 36.1521 111.814 35.5898 115.72 36.5229Z" fill="#82A1E4"/>
<path opacity="0.5" d="M115.72 36.5229C118.398 37.1749 120.264 47.7262 120.264 47.7262L112.893 52.5114C112.893 52.5114 105.823 41.8644 107.901 39.0471C110.029 36.1521 111.814 35.5898 115.72 36.5229Z" fill="white"/>
<path opacity="0.2" d="M114.759 39.1787L108.35 44.0476C109.598 47.0053 111.117 49.8516 112.887 52.5533L117.998 49.2216L114.759 39.1787Z" fill="#82A1E4"/>
<path d="M115.72 36.5229C115.72 36.5229 118.841 37.5637 112.6 74.0687H86.252C86.6951 63.7865 86.7076 57.4461 81.584 36.3375C85.2735 35.6091 89.013 35.1374 92.7735 34.9259C96.7604 34.6534 100.762 34.6534 104.749 34.9259C109.892 35.3984 115.72 36.5229 115.72 36.5229Z" fill="#82A1E4"/>
<path opacity="0.5" d="M115.72 36.5229C115.72 36.5229 118.841 37.5637 112.6 74.0687H86.252C86.6951 63.7865 86.7076 57.4461 81.584 36.3375C85.2735 35.6091 89.013 35.1374 92.7735 34.9259C96.7604 34.6534 100.762 34.6534 104.749 34.9259C109.892 35.3984 115.72 36.5229 115.72 36.5229Z" fill="white"/>
<path d="M140.346 65.0964L144.945 60.6223L145.569 66.9268C145.569 66.9268 142.118 69.1638 139.734 67.9616L140.346 65.0964Z" fill="#E58A7B"/>
<path d="M150.375 59.9583L150.581 65.2579L145.563 66.9268L144.958 60.6223L150.375 59.9583Z" fill="#E58A7B"/>
<path d="M142.505 149.752H148.996L149.994 135.343H143.504L142.505 149.752Z" fill="#E58A7B"/>
<path d="M117.387 149.752H123.877L125.961 135.343H119.471L117.387 149.752Z" fill="#E58A7B"/>
<path d="M124.283 149.028H116.987C116.862 149.026 116.739 149.068 116.644 149.146C116.548 149.224 116.486 149.334 116.469 149.453L115.639 154.986C115.624 155.126 115.64 155.267 115.686 155.4C115.732 155.534 115.806 155.657 115.904 155.761C116.002 155.865 116.122 155.949 116.256 156.006C116.39 156.063 116.535 156.093 116.681 156.093C119.221 156.051 120.426 155.907 123.652 155.907C125.624 155.907 130.685 156.105 133.413 156.105C136.14 156.105 136.283 153.521 135.148 153.287C130.061 152.235 127.078 150.793 125.362 149.411C125.061 149.165 124.678 149.029 124.283 149.028Z" fill="#263238"/>
<path d="M149.501 149.029H142.218C142.093 149.027 141.971 149.07 141.876 149.148C141.781 149.226 141.718 149.334 141.7 149.453L140.87 154.986C140.855 155.126 140.871 155.267 140.917 155.4C140.962 155.534 141.037 155.657 141.135 155.761C141.233 155.865 141.353 155.949 141.487 156.006C141.621 156.063 141.766 156.093 141.912 156.093C144.452 156.051 145.657 155.907 148.883 155.907C150.861 155.907 154.937 156.105 157.664 156.105C160.391 156.105 160.534 153.521 159.399 153.287C154.313 152.235 152.309 150.793 150.599 149.411C150.292 149.163 149.903 149.027 149.501 149.029Z" fill="#263238"/>
<path d="M110.547 9.43878C112.881 9.58234 114.067 20.8036 107.221 20.1516C100.375 19.4996 110.547 9.43878 110.547 9.43878Z" fill="#263238"/>
<path d="M149.994 135.343L149.476 142.772H142.986L143.497 135.343H149.994Z" fill="#CF6F64"/>
<path d="M119.471 135.343H125.968L124.888 142.772H118.391L119.471 135.343Z" fill="#CF6F64"/>
<path opacity="0.2" d="M84.2176 48.0731C84.8416 51.1357 85.2847 53.7795 85.6217 56.1601L87.1631 44.7295L84.2176 48.0731Z" fill="#82A1E4"/>
<path d="M93.9592 22.0298C94.7143 25.7204 95.4695 32.4854 92.7735 34.9498C92.7735 34.9498 93.8282 38.6942 100.986 38.6942C108.856 38.6942 104.731 34.9498 104.731 34.9498C100.431 33.9688 100.543 30.9123 101.292 28.0472L93.9592 22.0298Z" fill="#E58A7B"/>
<path d="M99.5633 39.4957L101.96 38.6703L101.641 38.0422L99.5633 39.4957Z" fill="#263238"/>
<path d="M104.213 39.0172L101.96 38.6703L102.446 37.9704L104.213 39.0172Z" fill="#263238"/>
<path d="M93.6472 33.2092L92.0184 34.7285C91.9696 34.7765 91.9423 34.8409 91.9423 34.9079C91.9423 34.975 91.9696 35.0393 92.0184 35.0874L98.8831 42.5822C99.2096 40.8022 100.204 39.1981 101.679 38.0721C95.9999 36.0145 94.5209 33.8851 94.0154 33.2869C94.0037 33.2522 93.9826 33.2209 93.9544 33.1964C93.9262 33.1718 93.8918 33.1547 93.8545 33.1469C93.8173 33.139 93.7786 33.1406 93.7422 33.1516C93.7058 33.1625 93.6731 33.1824 93.6472 33.2092Z" fill="#82A1E4"/>
<path d="M103.457 34.3576L105.479 34.884C105.54 34.9001 105.595 34.9313 105.639 34.9744C105.683 35.0175 105.714 35.0709 105.729 35.1292C106.3 37.5875 106.193 40.146 105.417 42.5523C105.13 41.5354 104.169 39.1009 102.447 37.9704C104.319 36.7323 103.564 35.1352 103.295 34.5311C103.287 34.5086 103.284 34.4843 103.289 34.4607C103.294 34.4371 103.305 34.4152 103.322 34.3974C103.338 34.3795 103.36 34.3664 103.384 34.3594C103.408 34.3524 103.433 34.3518 103.457 34.3576Z" fill="#82A1E4"/>
<path d="M96.961 24.4822L101.329 28.0412C101.148 28.7081 101.025 29.3883 100.961 30.0749C99.3199 29.8476 97.0671 28.1249 96.8923 26.486C96.7854 25.8197 96.8087 25.1403 96.961 24.4822Z" fill="#CF6F64"/>
<path d="M93.5411 12.3039C92.7985 18.4349 92.3429 21.0189 94.964 24.6796C98.8956 30.1885 106.921 29.722 109.561 23.9259C111.939 18.7101 112.75 9.57036 107.008 6.07718C105.745 5.3045 104.297 4.85418 102.802 4.76903C101.306 4.68388 99.8125 4.96671 98.463 5.59066C97.1135 6.21461 95.9528 7.15895 95.0914 8.33394C94.2299 9.50893 93.6963 10.8755 93.5411 12.3039Z" fill="#E58A7B"/>
<path d="M108.169 2.17725C97.5913 -1.82436 89.6469 2.69166 88.0056 9.10978C85.4283 19.0749 93.6597 19.7748 93.6597 19.7748L94.6894 17.2267C96.1684 18.082 100.306 17.7052 99.0578 10.3061C98.3214 6.11904 103.851 11.951 110.865 11.299C112.731 11.1255 115.284 4.86892 108.169 2.17725Z" fill="#263238"/>
<path d="M111.77 4.64162C110.378 2.58998 107.533 0.831425 101.635 0C101.635 0 104.699 0.663942 105.692 2.81129C106.684 4.95864 113.449 7.11197 111.77 4.64162Z" fill="#263238"/>
<path d="M91.5066 17.6095C91.4635 18.1991 91.5421 18.7911 91.7381 19.3515C91.9341 19.912 92.2435 20.4298 92.6487 20.8754C93.7408 22.0717 95.1761 21.336 95.6255 19.9004C96.0249 18.6024 95.9437 16.4252 94.4834 15.7672C93.0231 15.1092 91.6252 16.15 91.5066 17.6095Z" fill="#E58A7B"/>
<path d="M112.619 74.0926C112.619 74.0926 156.141 77.9745 155.717 96.9418C155.274 116.681 150.868 141.336 150.868 141.336H141.875C141.875 141.336 141.107 120.473 140.845 101.039C140.714 90.9184 98.6584 88.8907 98.6584 88.8907L93.2291 74.0926H112.619Z" fill="#263238"/>
<path d="M105.654 74.0926C105.654 74.0926 133.781 83.0349 134.492 94.1006C135.797 114.474 126.454 141.354 126.454 141.354H117.599C117.599 141.354 118.104 123.529 119.159 105.071C120.494 81.8745 77.7959 104.748 86.252 74.1105L105.654 74.0926Z" fill="#263238"/>
<path d="M102.796 15.6476C102.702 16.1381 102.902 16.5867 103.239 16.6465C103.576 16.7063 103.919 16.3474 104.013 15.8569C104.107 15.3664 103.907 14.9118 103.57 14.858C103.233 14.8042 102.902 15.1511 102.796 15.6476Z" fill="#263238"/>
<path d="M108.619 16.6464C108.525 17.1369 108.725 17.5855 109.062 17.6453C109.399 17.7052 109.748 17.3463 109.842 16.8558C109.935 16.3653 109.736 15.9107 109.399 15.8569C109.062 15.803 108.712 16.15 108.619 16.6464Z" fill="#263238"/>
<path d="M109.243 15.8569L110.547 15.7253C110.547 15.7253 109.767 16.5448 109.243 15.8569Z" fill="#263238"/>
<path d="M106.921 17.2267C107.171 18.432 107.591 19.5992 108.169 20.6959C107.875 20.8242 107.556 20.8905 107.233 20.8905C106.91 20.8905 106.591 20.8242 106.297 20.6959L106.921 17.2267Z" fill="#DF5753"/>
<path d="M104.15 22.293C103.465 22.1888 102.816 21.9315 102.254 21.5418C101.692 21.1521 101.235 20.6409 100.918 20.0499C100.907 20.0269 100.906 20.0008 100.916 19.9773C100.925 19.9538 100.944 19.9347 100.967 19.9243C100.992 19.9161 101.02 19.917 101.044 19.927C101.068 19.9369 101.088 19.9551 101.099 19.9781C101.399 20.5367 101.831 21.0202 102.361 21.3899C102.891 21.7597 103.503 22.0054 104.15 22.1075C104.176 22.1133 104.199 22.1281 104.214 22.1492C104.229 22.1702 104.235 22.1959 104.231 22.2212C104.227 22.2395 104.216 22.256 104.202 22.2688C104.188 22.2816 104.17 22.29 104.15 22.293Z" fill="#263238"/>
<path d="M101.429 13.4404C101.402 13.4414 101.375 13.4365 101.35 13.4261C101.326 13.4158 101.303 13.4002 101.286 13.3806C101.267 13.3638 101.252 13.3434 101.241 13.3208C101.231 13.2981 101.226 13.2737 101.226 13.249C101.226 13.2243 101.231 13.1998 101.241 13.1772C101.252 13.1545 101.267 13.1342 101.286 13.1174C101.622 12.8026 102.032 12.5698 102.482 12.4386C102.931 12.3074 103.407 12.2818 103.869 12.3637C103.918 12.3777 103.96 12.409 103.985 12.4512C104.011 12.4935 104.018 12.5435 104.007 12.591C104.001 12.6152 103.99 12.6379 103.975 12.658C103.96 12.678 103.94 12.6949 103.918 12.7078C103.896 12.7206 103.872 12.729 103.846 12.7326C103.821 12.7362 103.795 12.7348 103.77 12.7286C103.371 12.6611 102.961 12.6861 102.574 12.8016C102.188 12.9172 101.836 13.1198 101.548 13.3925C101.514 13.4199 101.473 13.4366 101.429 13.4404Z" fill="#263238"/>
<path d="M111.801 14.4214C111.763 14.4227 111.724 14.4125 111.692 14.3921C111.659 14.3718 111.634 14.3423 111.62 14.3077C111.468 13.9487 111.229 13.6293 110.923 13.3757C110.617 13.122 110.253 12.9413 109.86 12.8482C109.81 12.8394 109.764 12.8121 109.734 12.7719C109.704 12.7318 109.691 12.6819 109.698 12.6329C109.707 12.5829 109.737 12.5385 109.78 12.5093C109.823 12.4802 109.877 12.4687 109.929 12.4774C110.386 12.5789 110.811 12.7847 111.167 13.0773C111.524 13.37 111.801 13.7408 111.976 14.1582C111.997 14.2042 111.998 14.2564 111.98 14.3034C111.961 14.3504 111.924 14.3885 111.876 14.4094L111.801 14.4214Z" fill="#263238"/>
<path d="M85.5219 45.3635C84.954 47.158 84.3424 48.9524 83.7994 50.7947C83.2565 52.637 82.6824 54.4315 82.1893 56.2558C81.6963 58.0802 81.2283 59.8866 80.8788 61.6391C80.7103 62.5244 80.5543 63.4037 80.4669 64.2291C80.417 64.6418 80.392 65.0306 80.3858 65.3895C80.3858 65.4733 80.3858 65.3895 80.3234 65.252C80.2472 65.0898 80.1415 64.942 80.0114 64.8153C79.6931 64.5521 79.5745 64.6 79.7181 64.6418C79.9793 64.7028 80.2481 64.729 80.5169 64.7196C81.357 64.6919 82.1926 64.5898 83.0131 64.4145C84.8719 64.0221 86.7039 63.5207 88.4986 62.9132C92.1869 61.7169 95.9313 60.2574 99.5758 58.768L101.186 61.5853C97.7282 63.7579 94.1141 65.6928 90.3708 67.3754C88.4325 68.2517 86.4327 68.9972 84.3861 69.6065C83.2466 69.9391 82.0762 70.1655 80.8913 70.2824C80.1514 70.3551 79.4048 70.3371 78.6696 70.2285C78.1818 70.1585 77.7056 70.0278 77.253 69.8398C76.6681 69.5973 76.1381 69.2479 75.6928 68.8109C74.8274 67.9367 74.3315 66.7857 74.3012 65.5809C74.27 64.9828 74.2637 64.3846 74.3012 63.8463C74.3448 62.7397 74.4509 61.693 74.5945 60.6701C74.894 58.6245 75.2809 56.6506 75.7552 54.6887C76.2295 52.7267 76.735 50.8306 77.2904 48.9285C77.8459 47.0264 78.445 45.1602 79.1626 43.2581L85.5219 45.3635Z" fill="#E58A7B"/>
<path d="M126.504 150.075C125.929 150.062 125.358 149.985 124.801 149.848C124.78 149.844 124.761 149.834 124.745 149.82C124.73 149.806 124.72 149.787 124.716 149.767C124.712 149.747 124.715 149.727 124.723 149.708C124.731 149.689 124.745 149.674 124.763 149.663C124.981 149.525 126.929 148.317 127.671 148.634C127.749 148.667 127.816 148.721 127.864 148.788C127.913 148.856 127.941 148.935 127.946 149.017C127.977 149.149 127.971 149.287 127.93 149.418C127.888 149.548 127.812 149.665 127.709 149.758C127.359 149.997 126.932 150.109 126.504 150.075ZM125.1 149.704C126.305 149.944 127.209 149.914 127.559 149.603C127.635 149.532 127.691 149.444 127.721 149.346C127.752 149.249 127.756 149.146 127.734 149.046C127.731 148.999 127.715 148.954 127.688 148.915C127.66 148.876 127.622 148.845 127.578 148.825C127.103 148.622 125.787 149.298 125.1 149.704Z" fill="#82A1E4"/>
<path d="M124.825 149.854H124.769C124.752 149.844 124.737 149.83 124.728 149.813C124.718 149.797 124.713 149.778 124.713 149.758C124.713 149.686 124.713 147.916 125.412 147.33C125.494 147.255 125.593 147.199 125.701 147.166C125.81 147.134 125.924 147.127 126.036 147.144C126.149 147.143 126.258 147.18 126.346 147.247C126.433 147.315 126.494 147.41 126.517 147.515C126.648 148.161 125.562 149.483 124.882 149.854H124.825ZM125.924 147.33C125.786 147.331 125.655 147.382 125.556 147.473C125.063 147.892 124.963 149.076 124.932 149.549C125.556 149.118 126.392 148.03 126.286 147.545C126.286 147.467 126.223 147.366 125.999 147.336L125.924 147.33Z" fill="#82A1E4"/>
<path d="M151.941 150.075C151.255 150.061 150.572 149.987 149.9 149.854C149.878 149.849 149.859 149.837 149.843 149.821C149.828 149.805 149.817 149.786 149.813 149.764C149.81 149.742 149.814 149.72 149.825 149.7C149.837 149.681 149.854 149.666 149.875 149.657C150.163 149.513 152.727 148.257 153.508 148.664C153.575 148.7 153.633 148.751 153.674 148.814C153.715 148.877 153.74 148.948 153.745 149.023C153.762 149.147 153.748 149.274 153.702 149.392C153.656 149.51 153.581 149.615 153.483 149.698C153.029 149.989 152.485 150.122 151.941 150.075ZM150.262 149.704C151.099 149.842 152.759 150.039 153.333 149.549C153.404 149.485 153.459 149.405 153.493 149.317C153.527 149.229 153.538 149.134 153.526 149.04C153.526 149 153.514 148.96 153.492 148.925C153.47 148.891 153.439 148.862 153.401 148.843C152.89 148.58 151.167 149.28 150.262 149.704Z" fill="#82A1E4"/>
<path d="M149.925 149.854C149.905 149.86 149.883 149.86 149.863 149.854C149.848 149.843 149.835 149.828 149.827 149.811C149.818 149.795 149.814 149.777 149.813 149.758C149.813 149.686 149.969 148.03 150.768 147.366C150.88 147.274 151.01 147.206 151.151 147.165C151.291 147.123 151.439 147.11 151.585 147.126C151.985 147.162 152.097 147.354 152.128 147.503C152.241 148.191 150.73 149.507 149.969 149.836L149.925 149.854ZM151.467 147.33C151.262 147.329 151.064 147.401 150.911 147.533C150.325 148 150.119 149.118 150.056 149.567C150.874 149.13 151.991 148.006 151.929 147.545C151.929 147.497 151.929 147.366 151.585 147.336L151.467 147.33Z" fill="#82A1E4"/>
<path d="M99.426 58.8637L105.579 57.3683L102.646 63.0328C102.646 63.0328 98.4837 63.2063 97.1107 60.9812L99.426 58.8637Z" fill="#E58A7B"/>
<path d="M110.553 59.5157L107.832 64.1334L102.646 63.0328L105.579 57.3683L110.553 59.5157Z" fill="#E58A7B"/>
<path d="M103.414 14.858L104.718 14.7264C104.718 14.7264 103.913 15.5459 103.414 14.858Z" fill="#263238"/>
<path d="M85.8589 72.6092L85.6467 74.8702C85.5593 75.0496 85.7715 75.2291 86.0773 75.2291H112.75C112.987 75.2291 113.18 75.1154 113.199 74.9719L113.436 72.7109C113.436 72.5554 113.243 72.4238 112.987 72.4238H86.2895C86.2072 72.4171 86.1245 72.4307 86.0491 72.4631C85.9738 72.4955 85.9083 72.5458 85.8589 72.6092Z" fill="#82A1E4"/>
<path d="M89.4472 75.4743H88.7296C88.586 75.4743 88.4799 75.4025 88.4862 75.3188L88.8232 72.3759C88.8232 72.2922 88.9605 72.2204 89.104 72.2204H89.7967C89.9402 72.2204 90.0463 72.2922 90.0401 72.3759L89.7031 75.3188C89.7093 75.4025 89.5845 75.4743 89.4472 75.4743Z" fill="#263238"/>
<path d="M110.74 75.4743H110.023C109.879 75.4743 109.773 75.4025 109.779 75.3188L110.116 72.3759C110.116 72.2922 110.254 72.2204 110.397 72.2204H111.109C111.252 72.2204 111.358 72.2922 111.352 72.3759L111.015 75.3188C111.015 75.4025 110.878 75.4743 110.74 75.4743Z" fill="#263238"/>
<path d="M100.094 75.4743H99.3761C99.2326 75.4743 99.1265 75.4025 99.1327 75.3188L99.4697 72.3759C99.4697 72.2922 99.607 72.2204 99.7505 72.2204H100.462C100.606 72.2204 100.712 72.2922 100.705 72.3759L100.368 75.3188C100.356 75.4025 100.237 75.4743 100.094 75.4743Z" fill="#263238"/>
<path d="M81.584 36.3614C78.938 37.133 75.7677 45.848 75.7677 45.848L84.2862 53.8213C84.2862 53.8213 89.753 45.5968 88.6547 42.3249C87.4877 38.9155 84.5982 35.4881 81.584 36.3614Z" fill="#82A1E4"/>
<path opacity="0.5" d="M81.584 36.3614C78.938 37.133 75.7677 45.848 75.7677 45.848L84.2862 53.8213C84.2862 53.8213 89.753 45.5968 88.6547 42.3249C87.4877 38.9155 84.5982 35.4881 81.584 36.3614Z" fill="white"/>
<path d="M223.134 67.8778H173.484V160.441H223.134V67.8778Z" fill="#82A1E4"/>
<path opacity="0.6" d="M223.134 67.8778H173.484V160.441H223.134V67.8778Z" fill="white"/>
<path d="M126.947 67.8778H77.2967V160.441H126.947V67.8778Z" fill="#82A1E4"/>
<path opacity="0.6" d="M126.947 67.8778H77.2967V160.441H126.947V67.8778Z" fill="white"/>
<path d="M224.994 67.8778H220.9V160.441H224.994V67.8778Z" fill="#82A1E4"/>
<path opacity="0.3" d="M224.994 67.8778H220.9V160.441H224.994V67.8778Z" fill="black"/>
<path d="M127.54 74.8223L226.261 74.8223V67.8778L127.54 67.8778V74.8223Z" fill="#82A1E4"/>
<path opacity="0.3" d="M127.54 74.8223L226.261 74.8223V67.8778L127.54 67.8778V74.8223Z" fill="black"/>
<path d="M128.813 67.8778H124.719V160.441H128.813V67.8778Z" fill="#82A1E4"/>
<path opacity="0.3" d="M128.813 67.8778H124.719V160.441H128.813V67.8778Z" fill="black"/>
<path d="M127.303 90.0212L222.947 90.0212V70.0252L127.303 70.0252V90.0212Z" fill="#82A1E4"/>
<path opacity="0.3" d="M127.303 90.0212L222.947 90.0212V70.0252L127.303 70.0252V90.0212Z" fill="black"/>
<path d="M223.159 163.133H195.595C193.723 163.131 191.929 162.418 190.605 161.15C189.282 159.881 188.538 158.161 188.536 156.368V73.0099C188.536 71.4235 187.879 69.9021 186.708 68.7804C185.538 67.6586 183.951 67.0284 182.296 67.0284H174.046V66.4303H182.289C184.11 66.4303 185.856 67.1235 187.144 68.3574C188.431 69.5913 189.154 71.2649 189.154 73.0099V156.368C189.156 158.003 189.834 159.571 191.04 160.727C192.247 161.883 193.882 162.533 195.588 162.535H223.159C223.629 162.536 224.086 162.394 224.467 162.131C224.847 161.868 225.132 161.497 225.279 161.07C225.426 160.643 225.429 160.182 225.287 159.754C225.145 159.325 224.866 158.95 224.489 158.683L224.857 158.204C225.338 158.547 225.695 159.026 225.876 159.574C226.057 160.122 226.054 160.71 225.866 161.256C225.678 161.802 225.315 162.277 224.829 162.614C224.343 162.951 223.759 163.132 223.159 163.133Z" fill="#82A1E4"/>
<path opacity="0.3" d="M223.159 163.133H195.595C193.723 163.131 191.929 162.418 190.605 161.15C189.282 159.881 188.538 158.161 188.536 156.368V73.0099C188.536 71.4235 187.879 69.9021 186.708 68.7804C185.538 67.6586 183.951 67.0284 182.296 67.0284H174.046V66.4303H182.289C184.11 66.4303 185.856 67.1235 187.144 68.3574C188.431 69.5913 189.154 71.2649 189.154 73.0099V156.368C189.156 158.003 189.834 159.571 191.04 160.727C192.247 161.883 193.882 162.533 195.588 162.535H223.159C223.629 162.536 224.086 162.394 224.467 162.131C224.847 161.868 225.132 161.497 225.279 161.07C225.426 160.643 225.429 160.182 225.287 159.754C225.145 159.325 224.866 158.95 224.489 158.683L224.857 158.204C225.338 158.547 225.695 159.026 225.876 159.574C226.057 160.122 226.054 160.71 225.866 161.256C225.678 161.802 225.315 162.277 224.829 162.614C224.343 162.951 223.759 163.132 223.159 163.133Z" fill="black"/>
<path d="M227.178 95.1892H226.554V106.751H227.178V95.1892Z" fill="#82A1E4"/>
<path opacity="0.3" d="M227.178 95.1892H226.554V106.751H227.178V95.1892Z" fill="black"/>
<path d="M227.178 88.3644H226.554V91.403H227.178V88.3644Z" fill="#82A1E4"/>
<path opacity="0.3" d="M227.178 88.3644H226.554V91.403H227.178V88.3644Z" fill="black"/>
<path d="M181.472 40.2434H135.204L128.501 66.4303H174.763L181.472 40.2434Z" fill="#82A1E4"/>
<path opacity="0.4" d="M181.472 40.2434H135.204L128.501 66.4303H174.763L181.472 40.2434Z" fill="white"/>
<path d="M129.918 66.4303L129.731 67.8778H111.577L111.764 66.4303H129.918Z" fill="#82A1E4"/>
<path opacity="0.4" d="M129.918 66.4303L129.731 67.8778H111.577L111.764 66.4303H129.918Z" fill="white"/>
<path d="M176.186 66.4303L175.999 67.8778H129.731L129.918 66.4303H176.186Z" fill="#82A1E4"/>
<path opacity="0.5" d="M176.186 66.4303L175.999 67.8778H129.731L129.918 66.4303H176.186Z" fill="black"/>
<path d="M182.895 40.2434H136.627L129.924 66.4303H176.186L182.895 40.2434Z" fill="#82A1E4"/>
<path opacity="0.5" d="M182.895 40.2434H136.627L129.924 66.4303H176.186L182.895 40.2434Z" fill="black"/>
<path d="M200.762 61.2802C200.762 61.2802 193.953 50.029 203.377 41.0748C203.377 41.0748 205.842 42.618 205.804 44.6637C205.767 46.7093 203.164 47.2596 203.72 48.9823C204.275 50.7049 206.74 52.4097 205.124 53.8392C203.508 55.2688 205.386 56.5369 205.274 58.2835C205.161 60.0301 200.762 61.2802 200.762 61.2802Z" fill="#82A1E4"/>
<path d="M201.28 62.309C201.28 62.309 204.038 49.5745 192.131 43.9339C192.131 43.9339 190.296 46.1411 191.014 48.121C191.731 50.1008 194.371 49.7838 194.409 51.5962C194.446 53.4086 192.674 55.7533 194.677 56.6206C196.68 57.488 195.301 59.2645 195.994 60.8914C196.687 62.5184 201.28 62.309 201.28 62.309Z" fill="#82A1E4"/>
<path opacity="0.5" d="M201.28 62.309C201.28 62.309 204.038 49.5745 192.131 43.9339C192.131 43.9339 190.296 46.1411 191.014 48.121C191.731 50.1008 194.371 49.7838 194.409 51.5962C194.446 53.4086 192.674 55.7533 194.677 56.6206C196.68 57.488 195.301 59.2645 195.994 60.8914C196.687 62.5184 201.28 62.309 201.28 62.309Z" fill="black"/>
<path d="M190.845 59.4858C190.845 59.4858 191.076 67.8599 199.757 67.8599C208.438 67.8599 208.662 59.4858 208.662 59.4858H190.845Z" fill="#82A1E4"/>
<path opacity="0.5" d="M190.845 59.4858C190.845 59.4858 191.076 67.8599 199.757 67.8599C208.438 67.8599 208.662 59.4858 208.662 59.4858H190.845Z" fill="black"/>
</svg>
