<svg width="238" height="81" viewBox="0 0 238 81" fill="none" xmlns="http://www.w3.org/2000/svg">
<path d="M40.3604 56.3972L41.1171 55.1355C41.2432 55.0093 44.9009 60.3084 44.9009 60.1822L40.3604 56.3972ZM12.7387 43.7804C12.7387 43.7804 14.5045 45.0421 14.6306 45.1682C14.7568 45.1682 19.1712 44.5374 21.8198 44.4112L14.7568 50.215L12.7387 43.7804ZM9.08108 41.257C9.08108 41.257 11.2252 42.5187 11.7297 42.8972C11.8559 42.8972 13.8739 50.972 14 50.972C14 51.0981 12.8649 59.4252 12.8649 59.1729L9.08108 41.257ZM8.7027 38.8598L10.3423 38.1028L11.4775 42.014C11.4775 42.014 8.95496 40.2477 8.95496 40.3738C9.08108 40.2477 8.7027 38.8598 8.7027 38.8598ZM11.982 37.0935L14.1261 43.6542C13.3694 43.1495 12.3604 42.3925 12.3604 42.3925C12.2342 42.3925 10.973 37.472 10.973 37.472L11.982 37.0935ZM12.6126 36.8411C12.6126 36.8411 17.7838 34.3178 17.5315 34.3178L22.4505 43.7804L15.1351 44.4112L12.6126 36.8411ZM12.8649 27L15.5135 32.0467C15.6396 32.0467 10.973 27.757 10.973 27.6308L12.8649 27ZM9.33333 26.8738C9.20721 27 15.1351 33.1822 16.2703 33.9393L12.3604 35.9579L9.33333 26.8738ZM14.3784 26.3692L15.009 26.1168C15.009 26.1168 15.2613 26.7477 16.5225 28.7664L35.8198 61.5701C36.955 63.4626 42.3784 72.1682 42.6306 73.4299C39.4775 71.6636 16.018 62.8318 13.6216 61.3178L14.6306 52.486C14.8829 50.5935 15.009 51.0981 17.6577 48.8271C18.6667 47.9439 23.3333 44.285 23.4595 43.7804L14.3784 26.3692ZM48.3063 26.4953C48.4324 26.4953 53.4775 27.6308 54.7387 28.0093C54.7387 27.8832 59.4054 30.785 62.9369 33.4346C64.4505 34.5701 67.3514 36.9673 67.3514 36.9673C67.3514 36.9673 49.1892 26.4953 48.3063 26.4953ZM15.7658 25.8645L17.5315 25.486C18.6667 26.8738 19.8018 28.7664 20.9369 30.2804L38.3423 54.8832C39.7297 56.9019 40.4865 57.5327 42.3784 59.0467C43.8919 60.3084 47.0451 62.7056 47.1712 62.8318C47.1712 62.8318 44.2703 72.2944 43.5135 73.1776L19.2973 32.1729C18.036 30.1542 17.027 27.8832 15.7658 25.8645ZM18.2883 25.1075L38.5946 51.729C39.0991 52.486 39.3514 52.7383 39.982 53.6215C40.3604 54.1262 40.7387 54.6308 40.7387 54.6308C40.7387 54.6308 39.982 55.7664 39.8559 55.7664L23.7117 33.0561C22.8288 31.7944 21.9459 30.4065 21.0631 29.271L18.2883 25.1075ZM19.4234 24.8551L21.4414 24.2243C22.3243 25.2336 23.3333 26.1168 24.2162 27.1262L35.5676 39.4907C36.5766 40.6262 37.3333 41.7617 38.4685 42.771L44.1441 48.9533C44.1441 49.0794 41.8739 52.486 41.1171 53.8738L19.4234 24.8551ZM22.3243 23.8458C26.2342 22.4579 28.8829 21.5748 28.8829 21.7009C28.8829 21.7009 33.6757 25.2336 40.3604 30.028L57.2613 42.2664L44.7748 48.3224C44.7748 48.3224 44.6487 48.1963 44.018 47.5654L22.3243 23.8458ZM31.6577 22.0794C31.5315 22.0794 43.1351 25.1075 43.009 24.9813C46.6667 25.9907 49.8198 28.1355 52.8469 29.7757L71.5135 40.3738L63.3153 44.1589L55.2432 38.7336C52.7207 36.9673 50.1982 35.0748 47.4234 33.3084C44.7748 31.5421 42.2523 29.6495 39.6036 27.757L31.6577 22.0794ZM6.05405 19.9346L11.7297 36.3364L10.973 36.715L6.05405 19.9346ZM3.02703 11.7336L10.0901 37.2196L8.45045 37.8505C8.45045 37.8505 3.02703 13.7523 3.02703 11.7336ZM18.5405 9.71495C20.5586 10.7243 52.973 26.6215 53.2252 26.6215C53.2252 26.6215 45.7838 24.6028 45.6577 24.6028C45.5315 24.6028 18.5405 9.84112 18.5405 9.71495ZM6.18018 9.58879L14.1261 20.8178C15.1351 22.3318 16.1441 23.3411 16.9009 24.9813L15.2613 25.3598C13.7477 22.8364 12.3604 20.3131 10.7207 17.6636C9.20721 14.8879 7.69369 12.4907 6.18018 9.58879ZM7.18919 8.57944C8.1982 9.08411 13.1171 14.8879 14.1261 16.1495C14.6306 16.7804 15.3874 17.285 15.8919 17.9159L20.9369 23.5935L18.6667 24.3505L7.18919 8.57944ZM3.53153 8.45327L12.6126 26.243L10.4685 26.8738L3.53153 8.45327ZM7.44144 4.79439C11.7297 6.56075 42 23.8458 42.2523 23.8458C42.1261 23.972 29.8919 20.5654 29.7658 20.4393C29.7658 20.4393 28.1261 19.4299 27.3694 18.9252C27.1171 18.6729 26.8649 18.5467 26.6126 18.2944L7.44144 4.79439ZM3.65766 3.28037L15.8919 12.1122C18.036 13.6262 19.9279 15.1402 22.0721 16.6542L28.1261 20.9439C28.1261 20.9439 23.3333 22.5841 21.8198 23.0888C19.8018 21.3224 19.045 20.0607 17.4054 18.2944L5.92793 5.92991C4.79279 4.66822 4.54054 4.79439 3.65766 3.28037ZM44.1441 74.8178C44.6487 71.0327 48.1802 62.8318 47.9279 62.8318C47.8018 62.5794 42.3784 56.1449 41.6216 54.3785C41.7477 54.2523 44.3964 49.8364 44.9009 49.3318C45.027 49.2056 57.8919 43.1495 58.018 43.1495C58.018 43.2757 61.8018 45.7991 61.8018 45.9252C61.6757 46.1776 73.027 40.6262 73.027 40.6262C73.027 40.5 62.8108 32.6776 60.9189 31.2897C57.7658 28.8925 56.3784 27.757 54.4865 26.7477C46.9189 22.3318 1.76577 0.126168 0 0C0 0 6.68468 38.986 6.55856 39.1122C6.55856 39.1122 8.1982 40.8785 8.32432 40.8785C8.45045 41.1308 8.45045 41.3832 8.57658 42.5187L12.3604 60.9393C12.7387 62.4533 12.7387 62.2009 14.2523 62.7056L22.3243 66.1122C25.8559 67.6262 29.3874 68.8878 32.7928 70.4019C34.9369 71.1589 42.1261 74.5654 44.1441 74.8178Z" fill="#333366"/>
<path d="M87.9099 20.0607H83.3694C82.991 20.0607 82.8649 19.9346 82.8649 19.4299V18.0421C82.8649 17.6636 82.991 17.5374 83.3694 17.5374H95.4775C96.1081 17.5374 96.2342 17.6636 96.2342 18.1682L96.1081 19.5561C96.1081 19.9346 95.8559 20.0607 95.3514 20.0607H91.0631V33.5607C91.0631 33.9393 90.9369 34.1916 90.4324 34.1916H88.5405C88.1622 34.1916 87.9099 34.0654 87.9099 33.5607V20.0607Z" fill="#333366"/>
<path d="M108.342 19.6822V18.2944C108.342 17.7897 108.468 17.6635 108.973 17.6635H110.865C111.243 17.6635 111.496 17.7897 111.496 18.2944V33.6869C111.496 34.0654 111.369 34.3178 110.865 34.3178H108.973C108.468 34.3178 108.342 34.1916 108.342 33.6869V23.7196L101.153 32.0467V33.6869C101.153 34.0654 101.027 34.3178 100.523 34.3178H98.6306C98.1261 34.3178 98 34.1916 98 33.6869V18.2944C98 17.7897 98.1261 17.6635 98.6306 17.6635H100.523C100.901 17.6635 101.153 17.7897 101.153 18.2944V28.2617L108.342 19.6822Z" fill="#333366"/>
<path d="M118.558 20.0607H114.018C113.64 20.0607 113.513 19.9346 113.513 19.4299V18.0421C113.513 17.6636 113.64 17.5374 114.018 17.5374H126.126C126.757 17.5374 126.883 17.6636 126.883 18.1682L126.757 19.5561C126.757 19.9346 126.504 20.0607 126 20.0607H121.712V33.5607C121.712 33.9393 121.585 34.1916 121.081 34.1916H119.189C118.811 34.1916 118.558 34.0654 118.558 33.5607V20.0607Z" fill="#333366"/>
<path d="M133.063 18.0421C133.189 17.7897 133.315 17.5374 133.694 17.5374H135.586C135.964 17.5374 136.216 17.6636 136.216 17.9159L142.144 33.4346C142.27 33.8131 142.144 34.0654 141.766 34.0654H139.622C139.117 34.0654 138.991 33.8131 138.865 33.4346L137.604 29.9019H131.55L130.288 33.4346C130.162 33.6869 130.036 33.9393 129.658 33.9393H127.64C127.261 33.9393 127.135 33.6869 127.261 33.3084L133.063 18.0421ZM136.721 27.757L135.081 22.7103C134.829 22.0794 134.703 21.5748 134.577 21.1963C134.45 21.5748 134.324 22.0794 134.072 22.8365L132.432 27.8832H136.721V27.757Z" fill="#333366"/>
<path d="M157.153 33.5607C157.153 33.9393 157.027 34.1916 156.522 34.1916H154.631C154.252 34.1916 154 34.0654 154 33.5607V26.8738H147.189V33.5607C147.189 33.9393 146.937 34.1916 146.559 34.1916H144.667C144.288 34.1916 144.036 34.0654 144.036 33.5607V18.1682C144.036 17.7897 144.288 17.5374 144.667 17.5374H146.559C146.937 17.5374 147.189 17.6636 147.189 18.1682V24.4766H154V18.1682C154 17.7897 154.252 17.5374 154.631 17.5374H156.522C156.901 17.5374 157.153 17.6636 157.153 18.1682V33.5607Z" fill="#333366"/>
<path d="M167.117 34.4439C162.577 34.4439 159.928 31.1635 159.928 25.8645C159.928 20.6916 162.829 17.1589 167.369 17.1589C172.162 17.1589 174.558 20.6916 174.558 25.6121C174.558 31.1635 171.405 34.4439 167.117 34.4439ZM167.243 19.9346C164.847 19.9346 163.207 22.2056 163.207 25.8645C163.207 29.9019 164.721 31.7944 167.243 31.7944C169.64 31.7944 171.279 29.6495 171.279 25.8645C171.153 21.8271 169.766 19.9346 167.243 19.9346Z" fill="#333366"/>
<path d="M182.378 34.1916H177.838C177.333 34.1916 177.207 33.9393 177.207 33.4346V18.1682C177.207 17.6636 177.459 17.5374 177.964 17.5374H181.495C185.405 17.5374 187.549 18.6729 187.549 21.5748C187.549 23.215 186.54 24.729 184.901 25.1075C187.171 25.2336 188.937 26.8738 188.937 29.271C188.937 33.1822 185.784 34.1916 182.378 34.1916ZM181.622 19.9346H180.36V24.3505H181.622C183.387 24.3505 184.649 23.8458 184.649 21.9533C184.522 20.4393 183.387 19.9346 181.622 19.9346ZM184.522 27C183.766 26.6215 183.009 26.6215 182 26.6215C181.874 26.6215 180.613 26.6215 180.36 26.6215V31.7944H182.126C183.009 31.7944 183.766 31.6682 184.396 31.5421C185.279 31.1636 185.784 30.4065 185.784 29.271C185.784 28.1355 185.279 27.3785 184.522 27Z" fill="#333366"/>
<path d="M196 18.0421C196.126 17.7897 196.252 17.5374 196.631 17.5374H198.522C198.901 17.5374 199.153 17.6636 199.153 17.9159L205.081 33.4346C205.207 33.8131 205.081 34.0654 204.703 34.0654H202.559C202.054 34.0654 201.928 33.8131 201.802 33.4346L200.54 29.9019H194.486L193.225 33.4346C193.099 33.6869 192.973 33.9393 192.595 33.9393H190.45C190.072 33.9393 189.946 33.6869 190.072 33.3084L196 18.0421ZM199.658 27.757L198.018 22.7103C197.766 22.0794 197.64 21.5748 197.513 21.1963C197.387 21.5748 197.261 22.0794 197.009 22.8365L195.369 27.8832H199.658V27.757Z" fill="#333366"/>
<path d="M214.036 27.8832C212.396 27.8832 211.892 28.3879 211.135 30.028L209.495 33.5607C209.369 33.8131 209.117 34.1916 208.486 34.1916H206.468C205.964 34.1916 205.838 33.8131 206.09 33.4346L208.234 29.1449C208.739 28.2617 209.117 27.6308 209.874 27.2523C208.36 26.8738 206.973 25.3598 206.973 22.8365C206.973 19.0514 209.748 17.5374 213.279 17.5374H217.568C217.946 17.5374 218.198 17.6636 218.198 18.1682V33.4346C218.198 33.8131 218.072 34.0654 217.568 34.0654H215.676C215.171 34.0654 215.045 33.9393 215.045 33.4346V27.757H214.036V27.8832ZM215.171 19.9346H213.153C211.261 19.9346 210 20.6916 210 22.5841C210 24.6028 211.009 25.486 213.027 25.486H215.171V19.9346Z" fill="#333366"/>
<path d="M97.4955 55.6402C97.8738 55.6402 98.1261 55.7663 98.1261 56.271V62.2009C98.1261 62.5794 98 62.8318 97.4955 62.8318H95.8558C95.3513 62.8318 95.2252 62.7056 95.2252 62.2009V58.1635H85.3873V62.2009C85.3873 62.5794 85.2612 62.8318 84.7567 62.8318H83.1171C82.6126 62.8318 82.4865 62.7056 82.4865 62.2009V56.271C82.4865 55.7663 82.7387 55.6402 83.1171 55.6402H83.4955C85.7657 52.486 86.6486 48.7009 86.6486 45.2944V42.2663C86.6486 41.7617 86.9009 41.6355 87.2792 41.6355H95.8558C96.2342 41.6355 96.4864 41.7617 96.4864 42.2663V55.6402H97.4955ZM89.9279 45.042C89.9279 48.5748 89.1711 52.3598 87.027 55.6402H93.3333V44.0327H89.8018V45.042H89.9279Z" fill="#333366"/>
<path d="M107.333 58.4159C102.793 58.4159 100.144 55.1355 100.144 49.8364C100.144 44.6635 103.045 41.1308 107.586 41.1308C112.378 41.1308 114.775 44.6635 114.775 49.5841C114.649 55.1355 111.622 58.4159 107.333 58.4159ZM107.333 43.9065C104.937 43.9065 103.297 46.1776 103.297 49.8364C103.297 53.8738 104.811 55.8925 107.333 55.8925C109.73 55.8925 111.369 53.7477 111.369 49.8364C111.369 45.7991 109.982 43.9065 107.333 43.9065Z" fill="#333366"/>
<path d="M122.468 45.042C122.468 52.1075 121.586 57.2804 116.919 58.2897C116.54 58.4159 116.288 58.2897 116.162 57.9112L115.784 56.3972C115.658 56.0187 115.784 55.7663 116.162 55.6402C119.189 54.757 119.441 50.0888 119.441 45.4205V42.2663C119.441 41.7617 119.694 41.6355 120.072 41.6355H129.153C129.531 41.6355 129.784 41.7617 129.784 42.2663V57.5327C129.784 57.9112 129.658 58.1635 129.153 58.1635H127.261C126.757 58.1635 126.631 58.0374 126.631 57.5327V44.0327H122.342V45.042H122.468Z" fill="#333366"/>
<path d="M143.658 43.6542V42.2663C143.658 41.7617 143.784 41.6355 144.288 41.6355H146.18C146.559 41.6355 146.811 41.7617 146.811 42.2663V57.6589C146.811 58.0374 146.685 58.2897 146.18 58.2897H144.288C143.784 58.2897 143.658 58.1635 143.658 57.6589V47.6916L136.468 56.0187V57.6589C136.468 58.0374 136.342 58.2897 135.838 58.2897H133.946C133.441 58.2897 133.315 58.1635 133.315 57.6589V42.2663C133.315 41.7617 133.441 41.6355 133.946 41.6355H135.838C136.216 41.6355 136.468 41.7617 136.468 42.2663V52.2336L143.658 43.6542Z" fill="#333366"/>
<path d="M163.333 57.5327C163.333 57.9112 163.207 58.1635 162.703 58.1635H160.811C160.432 58.1635 160.18 58.0374 160.18 57.5327V50.8458H153.369V57.5327C153.369 57.9112 153.117 58.1635 152.739 58.1635H150.847C150.468 58.1635 150.216 58.0374 150.216 57.5327V42.1402C150.216 41.7617 150.468 41.5093 150.847 41.5093H152.739C153.117 41.5093 153.369 41.6355 153.369 42.1402V48.4486H160.18V42.1402C160.18 41.7617 160.432 41.5093 160.811 41.5093H162.703C163.081 41.5093 163.333 41.6355 163.333 42.1402V57.5327Z" fill="#333366"/>
<path d="M171.027 42.014C171.153 41.7617 171.279 41.5093 171.658 41.5093H173.549C173.928 41.5093 174.18 41.6355 174.18 41.8878L180.108 57.4065C180.234 57.785 180.108 58.0374 179.73 58.0374H177.586C177.081 58.0374 176.955 57.785 176.829 57.4065L175.567 53.8738H169.513L168.252 57.4065C168.126 57.6589 168 57.9112 167.622 57.9112H165.604C165.225 57.9112 165.099 57.6589 165.225 57.2804L171.027 42.014ZM174.811 51.729L173.171 46.6822C172.919 46.0514 172.793 45.5467 172.667 45.1682C172.54 45.5467 172.414 46.0514 172.162 46.8084L170.522 51.8551H174.811V51.729Z" fill="#333366"/>
<path d="M84.8829 78.3505C82.6126 78.3505 81.3513 76.7103 81.3513 73.9346C81.3513 71.1589 82.8648 69.3925 85.009 69.3925C87.2792 69.3925 88.5405 71.1589 88.5405 73.8084C88.5405 76.7103 87.027 78.3505 84.8829 78.3505ZM85.009 70.4019C83.6216 70.4019 82.6126 71.7897 82.6126 73.9346C82.6126 76.0795 83.4955 77.4673 85.009 77.4673C86.3964 77.4673 87.4054 76.0795 87.4054 73.9346C87.4054 71.6636 86.5225 70.4019 85.009 70.4019Z" fill="#333366"/>
<path d="M94.3423 73.0514C94.3423 73.1776 94.2161 73.1776 94.09 73.1776C93.7116 73.0514 93.3333 72.9253 92.8288 72.9253C91.6936 72.9253 90.9369 73.8084 90.9369 75.1963C90.9369 76.458 91.4414 77.5935 92.8288 77.5935C93.3333 77.5935 93.7116 77.4673 94.2161 77.3411C94.3423 77.3411 94.4684 77.3411 94.4684 77.4673L94.5945 77.8458C94.5945 77.972 94.5945 78.0982 94.4684 78.0982C93.9639 78.3505 93.3333 78.4767 92.8288 78.4767C90.8107 78.4767 89.9279 77.215 89.9279 75.3224C89.9279 73.4299 91.063 72.1682 92.9549 72.1682C93.5855 72.1682 94.09 72.2944 94.5945 72.5467C94.7206 72.5467 94.7206 72.6729 94.7206 72.7991L94.3423 73.0514Z" fill="#333366"/>
<path d="M98.1261 78.3505C96.2342 78.3505 95.3513 76.9626 95.3513 75.1963C95.3513 73.4299 96.3603 72.0421 98.2522 72.0421C100.144 72.0421 101.027 73.4299 101.027 75.1963C101.027 76.9626 100.018 78.3505 98.1261 78.3505ZM98.1261 72.7991C96.7387 72.7991 96.3603 73.9346 96.3603 75.0701C96.3603 76.2056 96.7387 77.4673 98.1261 77.4673C99.3874 77.4673 99.8919 76.3318 99.8919 75.1963C99.8919 74.0607 99.5135 72.7991 98.1261 72.7991Z" fill="#333366"/>
<path d="M105.441 72.2944C106.829 72.2944 107.838 73.3037 107.838 75.1963C107.838 77.0888 106.829 78.3505 105.063 78.3505C102.667 78.3505 102.288 76.2056 102.288 74.3131C102.288 72.6729 102.414 71.4112 103.171 70.5281C103.676 69.8972 104.558 69.5187 105.946 69.2664L107.207 69.1402C107.333 69.1402 107.333 69.1402 107.333 69.2664V69.8972C107.333 70.0234 107.333 70.0234 107.207 70.0234L106.072 70.1495C104.937 70.2757 104.18 70.6542 103.802 71.1589C103.549 71.5374 103.423 72.1682 103.423 72.9252C103.802 72.6729 104.558 72.2944 105.441 72.2944ZM103.297 74.1869C103.297 76.458 103.802 77.4673 104.937 77.4673C106.072 77.4673 106.576 76.3318 106.576 75.1963C106.576 74.3131 106.198 73.0514 104.937 73.0514C104.18 73.0514 103.549 73.4299 103.171 73.9346V74.1869H103.297Z" fill="#333366"/>
<path d="M113.135 77.3411C112.883 77.8458 112 78.3505 111.243 78.3505C109.477 78.3505 108.721 76.8364 108.721 75.3224C108.721 73.1776 109.982 72.0421 111.369 72.0421C112 72.0421 112.631 72.2944 113.009 72.7991V72.4206C113.009 72.2944 113.135 72.1682 113.261 72.1682H113.766C113.892 72.1682 114.018 72.2944 114.018 72.4206V76.8364C114.018 77.3411 114.018 77.4673 114.27 77.4673C114.396 77.4673 114.523 77.4673 114.523 77.5935V77.972C114.523 78.0981 114.396 78.2243 114.27 78.2243H113.766C113.513 78.2243 113.261 77.8458 113.135 77.3411ZM113.135 73.8084C112.883 73.1776 112.252 72.9252 111.622 72.9252C110.613 72.9252 109.982 73.8084 109.982 75.3224C109.982 76.7103 110.613 77.5935 111.495 77.5935C112.252 77.5935 112.883 76.9626 113.135 76.3318V73.8084Z" fill="#333366"/>
<path d="M118.685 75.701C118.054 75.701 117.802 75.9533 117.423 76.5841L116.667 78.0982C116.667 78.2243 116.541 78.2243 116.414 78.2243H115.658C115.531 78.2243 115.405 78.0981 115.531 77.972L116.541 76.2056C116.667 75.9533 116.919 75.5748 117.171 75.4486C116.414 75.3224 115.91 74.8178 115.91 73.9346C115.91 73.3038 116.162 72.7991 116.541 72.5467C116.919 72.1682 117.676 72.1682 118.559 72.1682H120.324C120.45 72.1682 120.577 72.1682 120.577 72.4206V77.972C120.577 78.2243 120.45 78.2243 120.324 78.2243H119.82C119.694 78.2243 119.568 78.2243 119.568 77.972V75.701H118.685ZM119.568 72.9253H118.559C117.676 72.9253 117.171 73.1776 117.171 73.9346C117.171 74.6916 117.802 74.9439 118.559 74.9439H119.568V72.9253Z" fill="#333366"/>
<path d="M125.748 75.4486C125.622 75.4486 125.622 75.4486 125.622 75.3224V74.8178C125.622 74.6916 125.622 74.6916 125.748 74.6916H128.649C128.523 73.6822 127.892 72.9252 126.631 72.9252C126.126 72.9252 125.622 73.0514 125.243 73.1776C125.117 73.1776 124.991 73.1776 124.991 73.0514L124.865 72.4206C124.865 72.2944 124.865 72.2944 124.991 72.1682C125.496 72.0421 126 71.9159 126.631 71.9159C128.649 71.9159 129.784 73.1776 129.784 75.0701C129.784 76.9626 128.649 78.3505 126.505 78.3505C125.874 78.3505 125.369 78.2243 124.865 78.0981C124.739 78.0981 124.739 77.972 124.739 77.8458L124.865 77.3411C124.865 77.215 124.991 77.215 125.117 77.215C125.369 77.3411 126 77.4673 126.505 77.4673C127.892 77.4673 128.649 76.8365 128.649 75.4486H125.748Z" fill="#333366"/>
<path d="M132.811 74.8178C133.694 74.8178 134.072 74.5654 134.198 73.9346L134.45 73.3037C134.703 72.6729 134.829 72.1682 135.838 72.1682H135.964C136.09 72.1682 136.09 72.1682 136.09 72.2944V72.7991C136.09 72.9252 136.09 72.9252 135.964 72.9252H135.838C135.459 72.9252 135.333 73.1776 135.207 73.5561L134.955 74.1869C134.829 74.6916 134.45 75.0701 134.072 75.1963C134.45 75.3224 134.703 75.5748 134.955 75.9533L136.09 77.8458C136.216 77.972 136.09 78.0981 135.964 78.0981H135.333C135.207 78.0981 135.081 77.972 134.955 77.8458L133.946 76.2056C133.568 75.5748 133.315 75.4486 132.559 75.4486H132.054V77.8458C132.054 78.0981 131.928 78.0981 131.802 78.0981H131.297C131.171 78.0981 131.045 78.0981 131.045 77.8458V72.2944C131.045 72.1682 131.171 72.0421 131.297 72.0421H131.802C131.928 72.0421 132.054 72.0421 132.054 72.2944V74.6916H132.811V74.8178Z" fill="#333366"/>
<path d="M139.874 78.3505C137.982 78.3505 137.099 76.9626 137.099 75.1963C137.099 73.4299 138.108 72.0421 140 72.0421C141.892 72.0421 142.775 73.4299 142.775 75.1963C142.775 76.9626 141.766 78.3505 139.874 78.3505ZM140 72.7991C138.613 72.7991 138.234 73.9346 138.234 75.0701C138.234 76.2056 138.613 77.4673 140 77.4673C141.261 77.4673 141.766 76.3318 141.766 75.1963C141.766 74.0607 141.261 72.7991 140 72.7991Z" fill="#333366"/>
<path d="M148.198 72.4206C148.198 72.2944 148.324 72.1682 148.45 72.1682H149.081C149.207 72.1682 149.333 72.1682 149.333 72.4206V77.972C149.333 78.2243 149.207 78.2243 149.081 78.2243H148.45C148.324 78.2243 148.198 78.2243 148.198 77.972V75.4486H145.297V77.972C145.297 78.2243 145.171 78.2243 145.045 78.2243H144.54C144.414 78.2243 144.288 78.2243 144.288 77.972V72.4206C144.288 72.2944 144.414 72.1682 144.54 72.1682H145.045C145.171 72.1682 145.297 72.1682 145.297 72.4206V74.6916H148.198V72.4206Z" fill="#333366"/>
<path d="M153.369 78.3505C151.477 78.3505 150.595 76.9626 150.595 75.1963C150.595 73.4299 151.604 72.0421 153.495 72.0421C155.387 72.0421 156.27 73.4299 156.27 75.1963C156.396 76.9626 155.261 78.3505 153.369 78.3505ZM153.495 72.7991C152.108 72.7991 151.73 73.9346 151.73 75.0701C151.73 76.2056 152.108 77.4673 153.495 77.4673C154.757 77.4673 155.261 76.3318 155.261 75.1963C155.261 74.0607 154.757 72.7991 153.495 72.7991Z" fill="#333366"/>
<path d="M160.937 77.0888L162.703 72.2944C162.703 72.1682 162.829 72.0421 162.955 72.0421H163.712C163.838 72.0421 163.964 72.0421 163.964 72.2944L164.216 77.8458C164.216 77.972 164.09 78.0981 163.964 78.0981H163.459C163.333 78.0981 163.207 78.0981 163.207 77.8458L163.081 73.3037L161.441 77.8458C161.441 77.972 161.315 78.0981 161.189 78.0981H160.559C160.432 78.0981 160.306 78.0981 160.306 77.8458L158.667 73.3037L158.54 77.8458C158.54 77.972 158.414 78.0981 158.288 78.0981H157.784C157.658 78.0981 157.531 78.0981 157.531 77.8458L157.784 72.2944C157.784 72.1682 157.91 72.0421 158.036 72.0421H158.919C159.045 72.0421 159.171 72.0421 159.171 72.2944L160.937 77.0888Z" fill="#333366"/>
<path d="M169.892 72.9253V72.4206C169.892 72.2944 170.018 72.1682 170.144 72.1682H170.649C170.775 72.1682 170.901 72.1682 170.901 72.4206V77.972C170.901 78.2243 170.775 78.2243 170.649 78.2243H170.144C170.018 78.2243 169.892 78.2243 169.892 77.972V74.1869L166.991 77.3411V77.972C166.991 78.2243 166.865 78.2243 166.739 78.2243H166.234C166.108 78.2243 165.982 78.2243 165.982 77.972V72.4206C165.982 72.2944 166.108 72.1682 166.234 72.1682H166.739C166.865 72.1682 166.991 72.1682 166.991 72.4206V76.2056L169.892 72.9253Z" fill="#333366"/>
<path d="M175.946 72.4206C175.946 72.2944 176.072 72.1682 176.198 72.1682H176.829C176.955 72.1682 177.081 72.1682 177.081 72.4206V77.972C177.081 78.2243 176.955 78.2243 176.829 78.2243H176.198C176.072 78.2243 175.946 78.2243 175.946 77.972V76.0795C175.568 76.2056 174.811 76.458 174.18 76.458C172.667 76.458 172.162 75.5748 172.162 74.3131V72.5467C172.162 72.4206 172.288 72.2944 172.414 72.2944H172.919C173.045 72.2944 173.171 72.2944 173.171 72.5467V74.1869C173.171 75.0701 173.297 75.5748 174.432 75.5748C174.937 75.5748 175.568 75.4486 175.82 75.3224V72.4206H175.946Z" fill="#333366"/>
<path d="M179.477 75.3224C179.477 76.4579 180.108 77.4673 181.369 77.4673C181.874 77.4673 182.504 77.3411 182.883 77.215C183.009 77.215 183.135 77.215 183.135 77.3411L183.261 77.7196C183.261 77.8458 183.261 77.972 183.135 77.972C182.631 78.2243 181.748 78.3505 181.117 78.3505C179.225 78.3505 178.216 77.0888 178.216 75.1963C178.216 73.3037 179.351 72.0421 181.117 72.0421C182.757 72.0421 183.64 73.3037 183.64 74.6916V75.0701C183.64 75.3224 183.64 75.4486 183.261 75.4486H179.477V75.3224ZM182.757 74.5654V74.4393C182.757 73.5561 182.252 72.9252 181.243 72.9252C180.234 72.9252 179.604 73.6822 179.604 74.6916H182.757V74.5654Z" fill="#333366"/>
<path d="M189.315 73.0514C189.315 73.1776 189.189 73.1776 189.063 73.1776C188.685 73.0514 188.306 72.9253 187.802 72.9253C186.541 72.9253 185.91 73.8084 185.91 75.1963C185.91 76.458 186.414 77.5935 187.802 77.5935C188.306 77.5935 188.685 77.4673 189.189 77.3411C189.315 77.3411 189.441 77.3411 189.441 77.4673L189.568 77.8458C189.568 77.972 189.568 78.0982 189.441 78.0982C188.937 78.3505 188.306 78.4767 187.802 78.4767C185.784 78.4767 184.901 77.215 184.901 75.3224C184.901 73.4299 186.036 72.1682 187.928 72.1682C188.559 72.1682 189.063 72.2944 189.568 72.5467C189.694 72.5467 189.694 72.6729 189.694 72.7991L189.315 73.0514Z" fill="#333366"/>
<path d="M192.216 74.8178C193.099 74.8178 193.477 74.5654 193.604 73.9346L193.856 73.3037C194.108 72.6729 194.234 72.1682 195.243 72.1682H195.369C195.495 72.1682 195.495 72.1682 195.495 72.2944V72.7991C195.495 72.9252 195.495 72.9252 195.243 72.9252H195.117C194.739 72.9252 194.739 73.1776 194.486 73.5561L194.234 74.1869C194.108 74.6916 193.73 75.0701 193.351 75.1963C193.73 75.3224 193.982 75.5748 194.234 75.9533L195.369 77.8458C195.495 77.972 195.495 78.0981 195.243 78.0981H194.613C194.486 78.0981 194.36 77.972 194.234 77.8458L193.351 76.2056C192.973 75.5748 192.721 75.4486 191.964 75.4486H191.459V77.8458C191.459 78.0981 191.333 78.0981 191.207 78.0981H190.577C190.45 78.0981 190.324 78.0981 190.324 77.8458V72.2944C190.324 72.1682 190.45 72.0421 190.577 72.0421H191.207C191.333 72.0421 191.459 72.0421 191.459 72.2944V74.6916H192.216V74.8178Z" fill="#333366"/>
<path d="M200.919 77.3411C200.667 77.8458 199.784 78.3505 199.027 78.3505C197.261 78.3505 196.504 76.8364 196.504 75.3224C196.504 73.1776 197.766 72.0421 199.153 72.0421C199.784 72.0421 200.414 72.2944 200.793 72.7991V72.4206C200.793 72.2944 200.919 72.1682 201.045 72.1682H201.55C201.676 72.1682 201.802 72.2944 201.802 72.4206V76.8364C201.802 77.3411 201.802 77.4673 202.054 77.4673C202.18 77.4673 202.306 77.4673 202.306 77.5935V77.972C202.306 78.0981 202.18 78.2243 202.054 78.2243H201.802C201.171 78.2243 200.919 77.8458 200.919 77.3411ZM200.919 73.8084C200.667 73.1776 200.036 72.9252 199.405 72.9252C198.396 72.9252 197.766 73.8084 197.766 75.3224C197.766 76.7103 198.396 77.5935 199.279 77.5935C200.036 77.5935 200.667 76.9626 200.919 76.3318V73.8084Z" fill="#333366"/>
<path d="M206.468 75.7009C205.838 75.7009 205.586 75.9533 205.207 76.5841L204.45 78.0981C204.324 78.2243 204.324 78.3505 204.072 78.3505H203.315C203.189 78.3505 203.063 78.2243 203.189 78.0981L204.198 76.3318C204.324 76.0795 204.577 75.7009 204.829 75.5748C204.072 75.4486 203.568 74.9439 203.568 74.0608C203.568 73.4299 203.82 72.9252 204.198 72.6729C204.577 72.2944 205.333 72.2944 206.216 72.2944H207.982C208.108 72.2944 208.234 72.2944 208.234 72.5467V78.0981C208.234 78.3505 208.108 78.3505 207.982 78.3505H207.351C207.225 78.3505 207.099 78.3505 207.099 78.0981V75.7009H206.468ZM207.225 72.9252H206.216C205.333 72.9252 204.829 73.1776 204.829 73.9346C204.829 74.6916 205.459 74.9439 206.216 74.9439H207.225V72.9252Z" fill="#333366"/>
<path d="M214.414 78.3505C213.658 78.3505 213.153 78.2243 212.649 77.972C212.522 77.972 212.522 77.8458 212.522 77.7196L212.649 77.3411C212.649 77.215 212.775 77.215 212.901 77.215C213.279 77.3411 213.91 77.4673 214.414 77.4673C215.297 77.4673 215.928 77.0888 215.928 76.3318C215.928 75.5748 215.171 75.1963 214.288 75.1963H213.658C213.531 75.1963 213.531 75.1963 213.531 75.0701V74.5654C213.531 74.4393 213.531 74.4393 213.658 74.4393H214.288C215.171 74.4393 215.676 74.1869 215.676 73.4299C215.676 72.7991 215.171 72.5468 214.414 72.5468C214.036 72.5468 213.531 72.6729 213.027 72.7991C212.901 72.7991 212.775 72.7991 212.775 72.6729L212.649 72.2944C212.649 72.1682 212.649 72.0421 212.775 72.0421C213.279 71.7897 213.91 71.6636 214.667 71.6636C215.928 71.6636 216.937 72.1682 216.937 73.3038C216.937 73.9346 216.685 74.4393 215.928 74.6916C216.685 74.8178 217.189 75.4486 217.189 76.2056C217.063 77.7197 216.054 78.3505 214.414 78.3505Z" fill="#333366"/>
<path d="M220.847 78.3505C218.955 78.3505 218.072 76.9626 218.072 75.1963C218.072 73.4299 219.081 72.0421 220.973 72.0421C222.865 72.0421 223.748 73.4299 223.748 75.1963C223.874 76.9626 222.739 78.3505 220.847 78.3505ZM220.973 72.7991C219.586 72.7991 219.207 73.9346 219.207 75.0701C219.207 76.2056 219.586 77.4673 220.973 77.4673C222.234 77.4673 222.739 76.3318 222.739 75.1963C222.739 74.0607 222.234 72.7991 220.973 72.7991Z" fill="#333366"/>
<path d="M229.171 72.4206C229.171 72.2944 229.297 72.1682 229.423 72.1682H229.928C230.054 72.1682 230.18 72.1682 230.18 72.4206V77.972C230.18 78.2243 230.054 78.2243 229.928 78.2243H229.423C229.297 78.2243 229.171 78.2243 229.171 77.972V75.4486H226.27V77.972C226.27 78.2243 226.144 78.2243 226.018 78.2243H225.387C225.261 78.2243 225.135 78.2243 225.135 77.972V72.4206C225.135 72.2944 225.261 72.1682 225.387 72.1682H226.018C226.144 72.1682 226.27 72.1682 226.27 72.4206V74.6916H229.171V72.4206Z" fill="#333366"/>
<path d="M235.982 77.3411C235.73 77.8458 234.847 78.3505 234.09 78.3505C232.324 78.3505 231.568 76.8364 231.568 75.3224C231.568 73.1776 232.829 72.0421 234.216 72.0421C234.847 72.0421 235.477 72.2944 235.856 72.7991V72.4206C235.856 72.2944 235.982 72.1682 236.108 72.1682H236.613C236.739 72.1682 236.865 72.2944 236.865 72.4206V76.8364C236.865 77.3411 236.865 77.4673 237.117 77.4673C237.243 77.4673 237.369 77.4673 237.369 77.5935V77.972C237.369 78.0981 237.369 78.2243 237.117 78.2243H236.613C236.234 78.2243 235.982 77.8458 235.982 77.3411ZM235.982 73.8084C235.73 73.1776 235.099 72.9252 234.468 72.9252C233.459 72.9252 232.829 73.8084 232.829 75.3224C232.829 76.7103 233.459 77.5935 234.342 77.5935C235.099 77.5935 235.73 76.9626 235.982 76.3318V73.8084Z" fill="#333366"/>
</svg>
